<svg width="450" height="450" viewBox="0 0 450 450" fill="none" xmlns="http://www.w3.org/2000/svg">
<g clip-path="url(#clip0)">
<g opacity="0.2" filter="url(#filter0_d)">
<path fill-rule="evenodd" clip-rule="evenodd" d="M393.886 258.793C385.859 301.081 395.623 348.387 354.193 376.75C310.874 406.406 248.394 404.851 191.276 397.498C128.154 389.373 54.1846 379.783 27.9174 334.75C1.99111 290.301 55.7956 246.955 76.6239 200.937C103.981 140.496 89.2132 57.4771 165.115 31.6334C246.787 3.82503 354.272 33.3563 409.051 87.7499C456.861 135.223 405.178 199.303 393.886 258.793Z" fill="#CFD7E5"/>
</g>
<path fill-rule="evenodd" clip-rule="evenodd" d="M225 427C349.261 427 450 432.598 450 439.5C450 446.402 349.267 452 225 452C100.733 452 0 446.404 0 439.5C0 432.596 100.733 427 225 427Z" fill="#E1E7F1" fill-opacity="0.3"/>
<path d="M132.106 427.815C132.106 427.815 85.5532 373.326 114.463 340.747C143.374 308.169 166.223 350.462 182.023 347.346C202.027 343.402 210.677 284.056 240.578 284C274.6 283.936 299.573 307.457 286.271 363.471C276.46 404.785 343.895 370.953 333.991 428.619L132.106 427.815Z" fill="#CFD7E5" fill-opacity="0.5"/>
<path fill-rule="evenodd" clip-rule="evenodd" d="M167.58 125.328H90.5965C84.5148 125.328 79.5845 120.387 79.5845 114.294V37.164C79.5845 31.0707 84.5148 26.1309 90.5965 26.1309H167.58C170.501 26.1309 173.301 27.2935 175.366 29.3627C177.431 31.4318 178.591 34.238 178.591 37.164V114.294C178.591 117.22 177.431 120.026 175.366 122.096C173.301 124.165 170.501 125.328 167.58 125.328Z" fill="#CFD7E5"/>
<path fill-rule="evenodd" clip-rule="evenodd" d="M152.009 105.012H106.17V102.743H152.009V105.012Z" fill="#E1E7F1"/>
<path fill-rule="evenodd" clip-rule="evenodd" d="M145.516 112.162H112.662V109.896H145.516V112.162Z" fill="#E1E7F1"/>
<path fill-rule="evenodd" clip-rule="evenodd" d="M154.579 64.7616C152.379 58.9381 147.1 56.2631 144.608 55.4293C143.721 55.1336 142.135 54.6153 140.466 54.0732C137.454 53.0991 134.167 52.0403 134.167 52.0403H123.78C123.78 52.0403 120.184 53.2477 116.36 54.5905C112.839 55.8293 109.129 57.1776 107.88 57.8075C105.27 59.1127 100.875 68.4495 99.9891 69.522C99.5319 70.0746 97.493 73.7099 95.4888 77.7724H106.677C107.86 75.7373 108.772 74.1597 108.772 74.1597C108.772 74.1597 109.48 75.7152 110.337 77.7724H146.185C146.752 75.3831 147.105 72.3733 147.105 72.3733C147.105 72.3733 149.025 74.9897 151.123 77.7724H161.453C158.94 73.5491 155.822 68.0522 154.584 64.7627" fill="#C5001A"/>
<path fill-rule="evenodd" clip-rule="evenodd" d="M134.133 51.2965C133.627 50.1643 134.002 45.384 134.002 45.384C134.002 45.384 123.66 42.7455 123.954 44.7613C124.249 46.777 123.954 51.5722 123.954 51.5722C123.025 52.3965 122.319 52.9074 121.836 53.1047C120.495 53.6526 121.921 56.7933 128.576 56.7933C135.232 56.7933 137.982 53.6512 136.136 52.7687C135.759 52.5882 135.091 52.0975 134.133 51.2965Z" fill="#FFAF81"/>
<path fill-rule="evenodd" clip-rule="evenodd" d="M130.209 23.4448C130.209 23.4448 138.331 24.7257 137.094 37.4575C135.857 50.1892 128.689 49.1438 128.211 49.1305C127.732 49.1173 121.016 49.3637 120.492 33.8205C120.492 33.8205 120.263 22.327 130.21 23.4448" fill="#FFAF81"/>
<path fill-rule="evenodd" clip-rule="evenodd" d="M137.221 33.8613C137.221 33.8613 138.109 32.9098 138.435 33.8723C138.76 34.8349 137.221 39.1323 137.165 39.334C137.165 39.334 137.004 39.708 136.79 39.4997C136.576 39.2914 137.22 33.8596 137.22 33.8596" fill="#FFAF81"/>
<path fill-rule="evenodd" clip-rule="evenodd" d="M120.713 33.6989C120.713 33.6989 119.842 32.7302 119.499 33.6873C119.157 34.6443 120.598 38.9698 120.662 39.1715C120.662 39.1715 120.818 39.5495 121.036 39.3483C121.253 39.1472 120.714 33.6989 120.714 33.6989" fill="#FFAF81"/>
<path d="M137.218 35.813L136.054 37.3701C136.054 37.3701 136.087 33.9547 135.9 33.4209C135.712 32.8871 135.429 31.251 135.273 30.8631C135.117 30.4752 128.298 28.5649 122.277 31.4234C122.277 31.4234 122.541 33.8773 121.963 34.0956C121.385 34.3139 121.67 38.0957 121.67 38.0957L120.713 37.0143C120.713 37.0143 119.251 27.22 119.61 26.1988C119.969 25.1777 121.123 19.0414 133.479 22.6839C133.479 22.6839 137.331 21.8661 138.104 24.5306C138.878 27.1951 137.216 35.8124 137.216 35.8124" fill="#444444"/>
<path opacity="0.35" d="M124.105 47.0003C125.245 48.3401 126.904 49.1249 128.662 49.1553C130.565 49.1553 131.932 48.621 133.827 46.7687C133.827 46.7687 133.005 50.2853 128.674 50.613C128.674 50.613 125.536 51.0136 124.104 47.0003" fill="#A77860"/>
<path d="M97.7792 85.4267H96.3833V94.5557H105.996V93.1571H97.7781L97.7792 85.4267ZM160.399 85.4267V93.1571H152.182V94.5557H161.793V85.4267H160.399ZM96.3833 45.5587H97.7792V37.8321H105.997V36.4336H96.3833V45.5587ZM152.181 36.4336V37.8321H160.399V45.5587H161.793V36.4336H152.181H152.181Z" fill="white"/>
<path fill-rule="evenodd" clip-rule="evenodd" d="M397.468 288.84H307.854C301.994 288.84 297.244 284.08 297.244 278.209V169.128C297.244 166.308 298.361 163.604 300.351 161.61C302.341 159.616 305.04 158.496 307.854 158.496H397.468C403.328 158.496 408.079 163.256 408.079 169.128V278.209C408.079 284.08 403.328 288.84 397.468 288.84Z" fill="#CFD7E5"/>
<path d="M365.277 253.496H314.125V250.338H365.277V253.496Z" fill="white"/>
<path d="M355.487 268.66H314.124V265.502H355.487V268.66Z" fill="white"/>
<path d="M316.594 227.385H315.004V237.796H325.97V236.2H316.594L316.594 227.385ZM388.032 227.385V236.2H378.656V237.796H389.622V227.385H388.032ZM315.004 181.904H316.595V173.09H325.971V171.494H315.005L315.004 181.904ZM378.657 171.495V173.09H388.032V181.904H389.623V171.495H378.657L378.657 171.495Z" fill="white"/>
<path d="M384.66 251.924C380.486 251.928 377.105 255.317 377.101 259.498C377.105 263.679 380.487 267.067 384.66 267.071C388.833 267.067 392.215 263.68 392.221 259.498C392.216 255.316 388.833 251.928 384.66 251.924ZM384.66 268.888C379.484 268.882 375.291 264.679 375.287 259.494C375.291 254.309 379.484 250.106 384.66 250.1C389.835 250.106 394.029 254.308 394.035 259.494C394.03 264.68 389.835 268.882 384.66 268.888ZM384.062 263.196L379.802 258.929L381.085 257.643L384.063 260.627L388.234 256.448L389.516 257.733L384.063 263.199L384.062 263.196Z" fill="white"/>
<path fill-rule="evenodd" clip-rule="evenodd" d="M384.227 226.653H378.896C378.799 226.44 378.719 226.253 378.654 226.104C377.072 222.362 368.92 213.782 368.92 213.782V213.8L368.915 213.81V213.821L368.901 213.858C368.896 213.881 368.89 213.904 368.883 213.927L368.874 213.973C368.869 213.986 368.865 213.996 368.86 214.01C368.525 215.26 366.883 221.49 366.06 226.656H329.984C329.902 226.177 329.805 225.721 329.692 225.297C329.379 224.068 329.146 222.819 328.996 221.559C328.991 221.5 328.982 221.444 328.977 221.384C328.95 221.163 328.927 220.947 328.908 220.732C328.715 218.743 328.695 216.741 328.849 214.749C328.745 214.97 328.017 217.646 327.062 220.95C326.536 222.764 325.943 224.768 325.353 226.656H316.833L327.525 195.754C327.76 195.568 330.535 194.224 332.558 193.257C334.624 192.271 337.114 190.826 339.365 189.589C340.517 188.957 341.602 188.385 342.545 187.953L342.687 187.887V187.883C344.243 187.172 345.279 186.702 345.279 186.702H345.284C345.321 186.698 345.564 186.674 345.955 186.637C348.125 186.427 354.866 185.796 357.121 185.665C357.305 185.652 357.461 185.647 357.583 185.642C357.659 185.638 357.735 185.638 357.811 185.642C359.002 185.965 360.171 186.366 361.31 186.842C361.379 186.865 361.448 186.893 361.517 186.921C361.607 186.954 361.69 186.986 361.779 187.018C361.938 187.079 362.099 187.139 362.259 187.204C362.586 187.334 362.921 187.465 363.264 187.599C363.379 187.646 363.499 187.692 363.621 187.739C367.272 189.19 371.457 190.989 372.451 191.705C373.108 192.174 375.153 196.038 377.525 200.817C380.076 209.008 383.199 220.827 384.224 226.656" fill="#C5001A"/>
<path fill-rule="evenodd" clip-rule="evenodd" d="M357.752 184.589C357.656 189.448 348.266 192.104 348.266 192.104C348.266 192.104 344.339 187.171 345.277 186.698C345.645 186.513 345.796 185.776 345.841 184.951C345.871 184.216 345.852 183.479 345.786 182.747C345.758 182.403 345.731 182.182 345.731 182.182C345.731 182.182 347.073 180.764 348.78 179.075C351.762 176.12 355.863 172.333 355.869 173.841C355.867 173.937 355.856 174.032 355.835 174.126C355.113 177.514 357.751 184.587 357.751 184.587" fill="#FFAF81"/>
<path fill-rule="evenodd" clip-rule="evenodd" d="M355.938 173.908C355.126 175.676 354.356 176.961 354.136 177.47C353.845 178.015 353.475 178.514 353.039 178.952C351.492 180.622 348.614 182.825 345.788 182.747C345.474 182.741 345.162 182.704 344.855 182.637C343.489 182.435 342.295 181.608 341.624 180.4C335.766 168.907 340.008 159.513 340.008 159.513C340.008 159.513 356.025 154.975 358.53 159.806C360.29 163.194 357.848 169.749 355.938 173.909" fill="#FFAF81"/>
<path d="M338.153 156.604C337.789 153.812 338.523 153.038 338.523 153.038C338.523 153.038 345.138 150.265 347.513 149.904C349.888 149.544 355.727 149.197 357.096 150.765C357.096 150.765 360.421 149.992 361.327 155.522C362.764 164.297 356.429 172.817 356.429 172.817C356.429 172.817 354.758 173.221 354.904 171.495C355.009 170.26 357.275 166.985 356.088 166.063C353.24 163.851 353.854 170.21 353.854 170.21L352.314 170.86C352.314 170.86 352.121 167.108 352.314 164.397C352.491 161.904 353.695 159.662 351.442 159.512C347.078 161.243 342.701 160.004 340.01 159.512C338.519 170.081 338.519 159.43 338.153 156.604Z" fill="#434343"/>
<path fill-rule="evenodd" clip-rule="evenodd" d="M379.62 201.053C378.134 196.288 376.85 192.518 376.277 192.108C375.281 191.39 367.374 189.212 363.621 187.739C363.501 187.692 363.379 187.646 363.264 187.599C362.924 187.465 362.586 187.334 362.262 187.204C362.096 187.139 361.938 187.078 361.779 187.018C361.689 186.986 361.607 186.953 361.52 186.92C361.451 186.892 361.382 186.865 361.313 186.841L361.292 186.86C359.815 188.552 358.432 190.325 357.149 192.169C353.269 197.692 348.215 206.642 348.991 214.903C349.242 217.552 349.548 221.359 350.064 225.633C350.1 225.973 350.142 226.311 350.188 226.656H367.691C367.905 222.18 368.287 216.292 368.862 214.01C368.866 213.996 368.871 213.986 368.876 213.973L368.885 213.926C368.889 213.903 368.899 213.88 368.903 213.857L368.917 213.82V213.809L368.921 213.8C368.921 213.8 373.158 220.434 373.374 226.655H384.391C383.853 220.876 382.167 209.231 379.621 201.053" fill="#3B3436"/>
<path fill-rule="evenodd" clip-rule="evenodd" d="M342.619 188.007C342.619 188.007 341.295 192.414 339.59 203.418V203.422C339.529 203.79 339.474 204.166 339.413 204.552C339.408 204.594 339.4 204.64 339.394 204.687C339.351 204.938 339.314 205.198 339.278 205.46C339.274 205.493 339.27 205.521 339.266 205.554C339.237 205.726 339.211 205.902 339.186 206.084C339.12 206.516 339.055 206.962 338.992 207.413C338.352 211.904 337.496 219.04 336.629 226.656H329.711C329.329 224.892 329.095 223.099 329.01 221.296C328.997 221.325 328.987 221.355 328.977 221.385C328.426 222.919 327.819 224.59 327.199 226.21C327.144 226.358 327.089 226.507 327.034 226.656H315.111L326.989 195.522C327.226 195.336 330.284 193.686 332.307 192.723C334.418 191.714 337.087 190.472 339.452 189.38C340.584 188.854 341.647 188.367 342.548 187.953L342.621 188.008" fill="#3B3436"/>
<path d="M358.705 198.894L354.136 201.479L356.09 203.473L351.801 226.653H350.186C349.592 221.966 349.255 217.757 348.991 214.9C347.797 202.124 360.522 187.717 361.31 186.839C361.922 187.071 362.581 187.327 363.263 187.596L358.705 198.893" fill="#51565C"/>
<path d="M342.69 187.885C342.69 187.885 340.983 193.466 338.998 207.411C338.356 211.897 337.498 219.037 336.626 226.653H335.956L335.069 204.752L337.244 202.39L335.31 199.968L339.45 189.378C340.582 188.852 341.643 188.364 342.545 187.95L342.689 187.885" fill="#51565C"/>
<path d="M361.541 186.893L357.753 184.589C357.753 184.589 357.647 186.67 348.267 192.104L350.93 199.619L361.542 186.89" fill="#F5E2D9"/>
<path d="M345.212 185.639C344.569 186.288 344.034 187.006 343.607 187.793C342.749 189.374 343.165 193.01 344.853 198.7L348.266 191.69L345.212 185.639Z" fill="#F5E2D9"/>
<path fill-rule="evenodd" clip-rule="evenodd" d="M293.556 124.383H235.561C233.012 124.383 230.568 123.369 228.766 121.563C226.963 119.757 225.951 117.308 225.951 114.754V64.3358C225.951 61.7818 226.963 59.3324 228.765 57.5263C230.568 55.7201 233.012 54.705 235.561 54.705H293.556C296.106 54.705 298.55 55.7199 300.352 57.5261C302.155 59.3322 303.167 61.7818 303.167 64.3358V114.754C303.167 117.308 302.154 119.757 300.352 121.563C298.55 123.369 296.105 124.383 293.556 124.383Z" fill="#E1E7F1"/>
<path d="M269.805 48.603C269.805 48.603 274.74 51.3167 273.173 57.9912C271.606 64.6657 271.01 65.5492 272.284 68.2474C273.558 70.9456 274.676 82.2484 273.318 84.3162C271.96 86.3839 258.195 74.2284 256.666 64.5054C255.137 54.7824 258.579 50.6525 259.803 49.1108C261.026 47.5692 265.453 46.1269 269.805 48.603Z" fill="#444444"/>
<path fill-rule="evenodd" clip-rule="evenodd" d="M279.07 103.776H273.787C273.532 101.162 273.295 99.3472 273.342 99.0787C273.421 98.6366 268.085 84.6168 267.588 83.4564C267.091 82.296 265.132 79.1906 264.877 76.263C264.623 73.3355 268.43 72.1519 268.43 72.1519C273.573 73.0753 275.316 80.2045 275.316 80.2045C275.316 80.2045 277.476 94.6609 278.57 98.7305C278.901 100.393 279.068 102.083 279.07 103.778" fill="#FFAF81"/>
<path d="M276.41 83.6851L268.541 87.0094C268.541 87.0094 261.31 69.0309 267.372 71.0401C273.414 73.0415 276.133 76.804 276.409 83.6879" fill="#C5001A"/>
<path fill-rule="evenodd" clip-rule="evenodd" d="M274.66 92.1488C274.429 93.9347 273.487 100.258 273.7 101.964C273.735 102.247 273.851 102.896 274.025 103.775H255.056C255.561 101.972 256.019 100.375 256.298 99.4439C257.22 96.3826 256.337 95.5643 255.871 93.1158C255.689 92.156 255.051 90.3342 254.36 88.2786C254.127 87.5912 253.886 86.8751 253.655 86.1568C252.991 83.9374 252.503 81.6689 252.196 79.3723C251.051 72.0618 256.663 71.36 256.663 71.36C258.748 70.9732 262.392 69.8488 262.392 69.8488L268.101 71.0368C268.577 71.2443 269.025 71.5097 269.435 71.827C269.894 72.1676 270.324 72.5452 270.721 72.9559C271.872 74.3699 272.909 75.8732 273.823 77.4516C274.201 78.0699 274.583 78.7037 274.942 79.3303C276.1 81.3422 276.927 82.9635 276.901 84.7958C276.877 86.5972 274.885 90.364 274.657 92.145" fill="#C5001A"/>
<path fill-rule="evenodd" clip-rule="evenodd" d="M268.099 71.0374C268.099 71.0374 271.675 77.1587 270.344 77.6174C269.014 78.076 262.009 76.5277 259.271 70.7434C259.271 70.7434 263.871 68.6503 268.099 71.0374" fill="#FFAF81"/>
<path fill-rule="evenodd" clip-rule="evenodd" d="M267.588 73.8328C267.588 73.8328 264.414 75.1783 261.538 70.7456C261.538 70.7456 262.31 65.7128 260.676 62.8013C259.043 59.8898 267.816 66.293 267.816 66.293C267.816 66.293 267.676 66.8925 267.528 67.7789C267.453 68.2309 267.376 68.7575 267.316 69.3172C267.265 69.7841 267.228 70.2732 267.213 70.7627C267.134 71.8007 267.262 72.844 267.589 73.8323" fill="#FFAF81"/>
<path d="M259.7 80.6925C259.047 84.0604 254.357 88.282 254.357 88.282C254.124 87.5929 253.886 86.8796 253.657 86.1612C255.906 84.6154 257.938 82.7756 259.7 80.6908" fill="#393D63"/>
<path fill-rule="evenodd" clip-rule="evenodd" d="M258.526 83.3707C258.228 84.6002 256.859 97.0352 257.008 97.4613C257.097 97.7049 257.758 100.582 258.422 103.78H252.3C251.673 101.718 251.302 100.009 251.393 99.0405C251.784 94.8454 250.365 81.4743 250.365 81.4743C250.365 81.4743 249.096 73.3847 255.791 72.3746C255.791 72.3746 259.749 72.8968 259.99 75.8232C260.231 78.7496 258.825 82.149 258.528 83.3735" fill="#FFAF81"/>
<path d="M249.867 85.0898L258.182 87.0354C258.182 87.0354 264.776 74.2052 258.836 71.8629C252.575 69.394 248.368 78.0915 249.867 85.0892" fill="#C5001A"/>
<path fill-rule="evenodd" clip-rule="evenodd" d="M269.034 49.3169C269.034 49.3169 276.259 51.9737 271.682 64.4656C267.104 76.9576 257.754 62.3316 259.165 54.6559C260.576 46.9801 269.037 49.3169 269.037 49.3169" fill="#FFAF81"/>
<path d="M272.791 56.9103C269.956 59.1528 266.469 60.4059 262.858 60.4788C262.858 60.4788 261.427 63.971 261.197 65.0447C261.197 65.0447 255.151 54.6426 262.101 49.3893C269.051 44.136 275.358 54.7299 272.791 56.9103" fill="#444444"/>
<path fill-rule="evenodd" clip-rule="evenodd" d="M263.68 61.227C263.675 60.3025 263.209 58.1757 261.81 58.6979C260.411 59.22 261.666 63.5677 262.586 63.3466C262.586 63.3466 263.689 63.4163 263.68 61.227" fill="#FFAF81"/>
<path d="M267.221 70.5504C263.826 69.6077 262.512 66.3664 262.472 66.2586C265.234 69.8332 267.316 69.3198 267.316 69.3198C267.265 69.7862 267.26 70.0769 267.221 70.551" fill="#A77860"/>
<path d="M345.851 183.792C349.246 182.849 350.56 179.608 350.6 179.5C347.838 183.075 345.756 182.562 345.756 182.562C345.806 183.028 345.811 183.319 345.851 183.793" fill="#A77860"/>
<path d="M239.675 106.254H238.564V113.507H246.206V112.397H239.676L239.675 106.254ZM289.44 106.254V112.396H282.91V113.506H290.551V106.254L289.44 106.254ZM238.564 74.5683H239.675V68.4265H246.206V67.3164H238.565L238.564 74.5683ZM282.91 67.3158V68.4259H289.44V74.5677H290.551V67.3152H282.91V67.3158Z" fill="white"/>
<path d="M170.037 262.173C170.203 262.815 170.456 263.431 170.79 264.003C172.96 267.96 177.986 273.62 177.986 273.62L181.881 264.826C181.881 264.826 181.247 262.067 180.144 258.119C176.393 259.091 172.811 259.663 170.037 262.173Z" fill="#D2D2D2"/>
<path fill-rule="evenodd" clip-rule="evenodd" d="M192.371 254.546C192.371 254.546 170.645 263.92 169.943 263.741C169.489 263.626 161.029 249.439 160.938 236.097C160.899 229.934 167.285 222.523 174.411 223.99C177.998 224.727 177.934 225.728 183.25 233.455C188.567 241.181 192.371 254.546 192.371 254.546Z" fill="#C5001A"/>
<path fill-rule="evenodd" clip-rule="evenodd" d="M210.918 422.613C210.918 422.613 210.403 431.162 210.398 431.18C210.209 432.265 209.463 434.947 209.463 435.936C209.463 439.641 227.032 432.788 223.094 431.145C222.737 430.997 220.871 429.872 220.754 428.61C220.573 426.667 220.115 422.734 220.115 422.734L210.918 422.613Z" fill="url(#paint0_linear)"/>
<path fill-rule="evenodd" clip-rule="evenodd" d="M223.669 430.836C223.669 430.836 219.469 432.104 217.318 432.42C215.167 432.735 212.334 430.071 210.812 430.79C209.137 431.584 209.203 438.73 209.203 438.73C209.203 438.73 231.722 440.762 238.042 438.662C240.561 437.817 232.253 433.787 223.669 430.836Z" fill="#242021"/>
<path fill-rule="evenodd" clip-rule="evenodd" d="M174.977 422.613C174.977 422.613 174.462 431.162 174.46 431.18C174.27 432.265 173.524 434.947 173.524 435.936C173.524 439.641 191.092 432.788 187.156 431.145C186.799 430.997 184.377 429.032 184.261 427.77C184.08 425.827 184.175 422.734 184.175 422.734L174.977 422.613Z" fill="url(#paint1_linear)"/>
<path fill-rule="evenodd" clip-rule="evenodd" d="M187.08 430.836C187.08 430.836 182.882 432.104 180.731 432.42C178.58 432.735 175.745 430.071 174.224 430.79C172.548 431.584 172.482 438.73 172.482 438.73C172.482 438.73 195.102 441.099 201.465 438.662C203.935 437.702 195.666 433.787 187.08 430.836Z" fill="#242021"/>
<path fill-rule="evenodd" clip-rule="evenodd" d="M180.346 266.911L195.818 245.193C195.884 245.002 196.022 244.613 196.238 244.018C197.018 241.863 198.64 237.381 200.051 232.919L200.067 232.87C200.507 231.313 201.451 228.591 202.363 225.96C203.373 223.035 204.628 219.407 204.672 218.787L204.452 218.238C203.886 216.762 203.118 213.248 202.847 211.722C202.673 210.749 202.501 208.383 203.655 208.383C205.471 208.383 204.606 210.745 205.443 212.22C205.973 210.611 206.393 208.967 206.7 207.3L207.003 202.681C207.063 202.332 206.693 199.787 207.965 199.787H208.027C209.17 199.871 209.145 202.577 209.619 207.158C209.771 206.631 209.92 205.996 210.035 205.411C210.105 204.594 210.233 203.784 210.42 202.985C210.2 201.71 210.325 199.696 211.681 199.897C212.362 199.992 212.305 202.802 212.305 202.802C212.305 203.188 212.258 206.157 212.278 206.744C212.419 205.747 212.963 201.496 214.026 201.496C214.907 201.496 214.979 202.641 214.962 203.545C214.962 204.081 214.396 208.687 214.365 209.223C214.781 208.524 215.274 204.465 215.686 204.465C217.405 204.465 216.787 210.235 216.153 211.744C216.071 212.008 216.005 212.277 215.957 212.549C215.737 213.577 215.382 215.297 214.48 216.841C213.401 218.694 211.91 221.639 211.681 222.091C211.516 223.011 210.997 226.317 210.347 230.473C210.068 232.253 209.762 234.207 209.445 236.227H209.427C209.368 236.668 209.046 238.058 207.822 243.285C206.147 250.43 205.973 250.739 205.898 250.871C205.172 252.159 188.489 274.86 187.778 275.824L187.36 276.395L180.346 266.911Z" fill="url(#paint2_linear)"/>
<path fill-rule="evenodd" clip-rule="evenodd" d="M176.608 210.041L174.627 222.662C174.627 222.662 182.217 228.768 186.642 227.48C190.354 226.399 187.809 221.538 187.809 221.538C187.809 221.538 185.828 214.799 186.438 211.268C187.047 207.736 176.608 210.041 176.608 210.041Z" fill="url(#paint3_linear)"/>
<path fill-rule="evenodd" clip-rule="evenodd" d="M165.816 194.498C165.469 194.498 169.145 210.206 174.833 212.909C180.521 215.612 188.998 214.202 190.597 209.973C192.358 205.292 185.935 189.269 177.934 187.232C169.934 185.195 165.816 194.498 165.816 194.498Z" fill="url(#paint4_linear)"/>
<path fill-rule="evenodd" clip-rule="evenodd" d="M172.422 179.746C169.164 181.638 166.577 184.502 165.023 187.938C162.87 188.963 160.263 191.177 159.012 197.143C157.473 204.478 162.941 210.133 168.739 211.835C174.538 213.538 175.433 217.379 175.433 217.379L176.074 213.246C176.074 213.246 174.787 209.644 172.846 207.843C170.905 206.042 173.766 203.413 174.017 201.272C174.21 199.624 172.996 196.419 173.26 193.714C173.26 193.714 176.481 188.823 179.658 187.615C185.081 185.554 178.309 176.346 172.422 179.746Z" fill="#2D2D2F"/>
<path fill-rule="evenodd" clip-rule="evenodd" d="M175.079 204.082C175.809 205.866 175.517 207.637 174.403 208.035C173.288 208.434 171.784 207.311 171.042 205.533C170.3 203.756 170.607 201.98 171.719 201.58C172.831 201.179 174.327 202.299 175.079 204.082Z" fill="url(#paint5_linear)"/>
<path fill-rule="evenodd" clip-rule="evenodd" d="M174.303 201.342C177.751 206.045 180.487 208.397 182.511 208.397C183.846 208.397 183.373 205.205 184.883 203.161C185.404 202.457 186.999 201.608 189.67 200.616C193.363 205.656 194.679 209.507 193.617 212.168C192.024 216.161 186.574 215.104 181.571 215.946C177.986 216.549 176.456 214.993 174.953 212.546C174.359 211.578 172.485 208.451 173.571 208.115C176.396 207.304 176.152 205.129 172.838 201.591L174.303 201.342Z" fill="#2D2D2F"/>
<path fill-rule="evenodd" clip-rule="evenodd" d="M194.244 267.259L224.092 262.385C224.092 262.385 220.695 253.818 219.482 253.818C218.269 253.818 196.919 263.159 196.919 263.159L195.22 266.576L194.244 267.259Z" fill="url(#paint6_linear)"/>
<path fill-rule="evenodd" clip-rule="evenodd" d="M178.957 287.764C178.957 287.764 175.978 302.184 177.195 313.129C178.413 324.074 178.505 362.909 178.505 362.909L173.882 425.061L184.87 425.302C184.87 425.302 197.896 363.178 197.654 364.773C197.412 366.368 202.021 321.032 202.021 321.032L186.492 286.403L178.957 287.764Z" fill="#2D2D2F"/>
<path fill-rule="evenodd" clip-rule="evenodd" d="M181.867 287.075C181.867 287.075 179.926 300.06 182.354 305.755C184.782 311.45 203.166 367.334 203.411 371.889C203.655 376.443 209.766 426.811 209.766 426.811L222.535 426.451L225.307 370.451L219.519 300.089L213.901 282.298L181.867 287.075Z" fill="#444444"/>
<path fill-rule="evenodd" clip-rule="evenodd" d="M208.193 253.397C208.193 253.397 219.482 264.07 224.579 262.248C229.675 260.426 231.784 254.195 219.348 245.081C208.222 236.925 208.193 253.397 208.193 253.397Z" fill="url(#paint7_linear)"/>
<path fill-rule="evenodd" clip-rule="evenodd" d="M215.851 266.575C214.174 257.435 202.017 228.986 201.047 223.747C200.575 221.198 194.019 221.142 187.774 221.476C181.17 221.826 174.625 222.662 174.625 222.662C174.625 222.662 168.786 223.624 166.217 226.035C163.648 228.446 162.966 235.118 166.657 247.781C169.574 257.777 173.189 263.265 174.977 270.546C175.34 272.987 175.637 275.398 176.06 278.213C176.72 289.1 176.06 303.481 176.06 303.481C176.06 303.481 207.849 310.098 219.739 300.065C219.724 300.065 217.56 275.943 215.851 266.575Z" fill="#9A0115"/>
<path fill-rule="evenodd" clip-rule="evenodd" d="M223.947 246.931C223.947 246.931 211.473 257.248 210.738 257.248C210.269 257.248 192.937 244.472 188.943 233.977C186.742 228.176 191.365 221.685 196.668 221.707C200.343 221.723 201.974 222.671 209.254 228.821C216.534 234.97 223.947 246.931 223.947 246.931Z" fill="#C5001A"/>
<path d="M138.696 188.142H71.5703C69.9955 188.144 68.4861 188.773 67.3744 189.891C66.2626 191.008 65.6395 192.523 65.6421 194.101V233.417C65.6395 234.994 66.2626 236.509 67.3744 237.626C68.4861 238.744 69.9955 239.373 71.5703 239.375H118.54C121.559 243.613 127.033 251.2 127.516 251.2C127.998 251.2 127.099 244.045 126.485 239.375H138.696C140.271 239.373 141.78 238.744 142.892 237.626C144.004 236.509 144.627 234.994 144.624 233.417V194.101C144.627 192.523 144.004 191.008 142.892 189.891C141.78 188.773 140.271 188.144 138.696 188.142Z" fill="#E1E7F1"/>
<path fill-rule="evenodd" clip-rule="evenodd" d="M93.8673 161.668C101.996 161.669 109.27 166.729 112.112 174.36C114.953 181.99 112.766 190.587 106.624 195.923C106.609 195.938 103.582 199.217 103.082 202.652L102.999 204.754C102.97 205.443 102.7 206.1 102.236 206.61C102.196 206.656 102.153 206.699 102.11 206.741H85.6338C85.5908 206.699 85.5478 206.656 85.5075 206.61C85.0437 206.1 84.7737 205.443 84.7448 204.754L84.6532 202.654C84.153 199.221 81.1236 195.941 81.1109 195.926C74.9675 190.59 72.7783 181.993 75.6198 174.361C78.4613 166.729 85.7356 161.669 93.8657 161.668H93.8673Z" fill="#A1A7C4"/>
<path d="M94.6513 218.917H93.085C91.0978 218.917 89.192 218.126 87.7868 216.719C86.3816 215.311 85.5922 213.401 85.5922 211.41V206.741H102.144V211.41C102.144 215.556 98.7891 218.917 94.6513 218.917Z" fill="#1F1F20"/>
<path d="M94.0048 185.362L97.8742 175.029L101.271 181.04L102.268 180.829L97.6685 172.691L93.7203 183.235L89.6755 177.191L85.9302 181.063L86.838 181.391L89.5034 178.635L94.0048 185.362V185.362Z" fill="white"/>
<path d="M98.8814 208.309L98.9747 208.319C99.4621 208.367 99.8971 208.012 99.9475 207.524L102.655 181.345C102.703 180.856 102.347 180.421 101.86 180.37L101.768 180.36C101.281 180.312 100.846 180.667 100.795 181.156L98.0878 207.334C98.04 207.822 98.3945 208.258 98.8814 208.309Z" fill="white"/>
<path d="M88.7971 208.315C88.2824 208.369 87.8213 207.995 87.7669 207.479L85.0695 181.387C85.0164 180.872 85.3894 180.411 85.9034 180.357C86.4174 180.303 86.8775 180.677 86.9319 181.192L89.6294 207.283C89.6834 207.798 89.3111 208.26 88.7971 208.315Z" fill="white"/>
<path d="M85.7143 208.439H102.01C102.468 208.439 102.84 208.067 102.84 207.608V207.435C102.84 206.976 102.468 206.604 102.01 206.604H85.7143C85.2562 206.604 84.8848 206.976 84.8848 207.435V207.608C84.8848 208.067 85.2562 208.439 85.7143 208.439Z" fill="#BDBDBD"/>
<path d="M85.7143 212.257H102.01C102.468 212.257 102.84 211.885 102.84 211.426V211.253C102.84 210.794 102.468 210.422 102.01 210.422H85.7143C85.2562 210.422 84.8848 210.794 84.8848 211.253V211.426C84.8848 211.885 85.2562 212.257 85.7143 212.257Z" fill="#BDBDBD"/>
<path d="M86.6683 216.376H101.057C101.515 216.376 101.887 216.004 101.887 215.545V215.372C101.887 214.913 101.515 214.541 101.057 214.541H86.6683C86.2102 214.541 85.8389 214.913 85.8389 215.372V215.545C85.8389 216.004 86.2102 216.376 86.6683 216.376Z" fill="#BDBDBD"/>
<path fill-rule="evenodd" clip-rule="evenodd" d="M368.523 389.025H332.646C331.451 389.025 330.308 388.529 329.491 387.655L324.866 382.716C324.047 381.842 322.904 381.346 321.707 381.348H306.645C304.255 381.348 302.318 383.289 302.318 385.683V434.027C302.318 436.424 304.257 438.366 306.649 438.366H368.515C370.907 438.366 372.846 436.424 372.846 434.027V393.358C372.846 390.965 370.911 389.025 368.523 389.023V389.025Z" fill="#A1A7C4"/>
<path d="M312.674 365.603H365.254V412.772H312.674V365.603Z" fill="#CBD9E5"/>
<path d="M309.914 369.982H360.893V415.548H309.914V369.982Z" fill="#EEEFEE"/>
<path d="M315.679 375.777H355.131V377.85H315.679V375.777Z" fill="#CBD9E5"/>
<path d="M315.679 382.365H355.131V384.439H315.679V382.365Z" fill="#CBD9E5"/>
<path d="M315.679 388.953H355.131V391.027H315.679V388.953Z" fill="#CBD9E5"/>
<path fill-rule="evenodd" clip-rule="evenodd" d="M371.833 395.98H332.641C331.449 395.98 330.309 396.474 329.492 397.344L324.866 402.261C324.048 403.131 322.908 403.625 321.716 403.625H304.027C302.879 403.625 301.779 404.082 300.967 404.895C300.156 405.708 299.701 406.812 299.701 407.962C299.701 408.094 299.707 408.225 299.718 408.356L301.956 434.421C302.16 436.656 304.03 438.366 306.27 438.366H368.893C371.132 438.366 373.003 436.655 373.206 434.42L376.14 400.71C376.245 399.565 375.891 398.425 375.156 397.542C374.422 396.658 373.367 396.103 372.224 395.999C372.095 395.986 371.964 395.98 371.833 395.98Z" fill="#CFD7E5"/>
<path d="M101.366 424.988L98.3135 379.729L98.8446 379.693L101.898 424.952L101.367 424.987" fill="#2FB193"/>
<path d="M93.6704 424.07L86.2598 301.322L86.7914 301.289L94.2015 424.041L93.6704 424.073" fill="#2FB193"/>
<path d="M97.022 426.685H97.5545V283.485H97.022V426.685Z" fill="#2FB193"/>
<path d="M102.446 425.655L101.914 425.643L103.854 339.906L104.387 339.918L102.446 425.655Z" fill="#2FB193"/>
<path fill-rule="evenodd" clip-rule="evenodd" d="M96.9766 312.777C96.9766 312.777 82.1156 300.083 86.526 287.415C90.9365 274.746 112.712 281.602 105.794 304.458C104.084 308.301 100.908 311.298 96.9766 312.777Z" fill="#A1A7C4"/>
<path d="M95.5493 306.706L95.9838 285.224L96.4477 288.647L96.082 306.716L95.5493 306.706ZM100.985 306.346L102.136 292.753L102.841 290.735L101.515 306.388L100.985 306.346ZM88.8633 288.475L89.8008 290.737L91.9771 303.123L91.4532 303.215L88.8633 288.475Z" fill="white"/>
<path fill-rule="evenodd" clip-rule="evenodd" d="M87.5845 333.612C87.5845 333.612 74.7051 316.914 81.4098 305.113C88.1145 293.313 131.263 303.068 111.755 345.653C92.2475 388.239 77.1753 359.595 77.1753 359.595L87.5845 333.612Z" fill="#CFD7E5"/>
<path d="M98.8657 364.025L98.3512 363.888L110.054 319.787L111.448 316.606L98.8657 364.025ZM95.1651 359.829L94.6335 359.804L96.8869 310.099L97.5465 307.295L95.1651 359.829ZM89.9649 343.526L87.7539 307.985L88.4709 310.969L90.496 343.493L89.9649 343.525V343.526Z" fill="white"/>
<path d="M97.2889 348.625C97.2889 348.625 95.3487 319.975 78.9401 330.529C62.5316 341.083 58.4741 382.451 97.2889 395.022V348.625Z" fill="url(#paint8_linear)"/>
<path d="M97.2889 348.625C97.2889 348.625 95.3487 319.975 78.9401 330.529C62.5316 341.083 58.4741 382.451 97.2889 395.022V348.625Z" fill="#A1A7C4"/>
<path d="M90.803 384.795C87.8497 384.284 84.8544 383.727 82.5855 383.267C78.9566 382.533 78.8286 382.397 78.7437 382.307L81.8504 382.572C82.2574 382.793 84.7397 383.207 91.1422 384.312C94.7099 384.927 103.412 386.37 107.149 386.461L107.136 386.993C103.31 386.901 94.4381 385.427 90.803 384.795ZM84.2533 373.09C76.5492 367.516 69.7475 361.87 69.6802 361.813L71.8112 362.863C74.4 364.967 97.13 383.869 105.051 383.869V384.402C101.631 384.404 94.6338 380.597 84.2533 373.09ZM95.0629 373.321C92.2921 370.384 88.8766 366.308 84.9146 361.203C78.1734 352.518 74.0371 346.504 73.9781 346.416L72.4796 343.357C72.5403 343.445 78.6014 352.205 85.3365 360.877C96.5388 375.306 100.899 378.41 102.586 378.469L102.566 379.002C101.078 378.948 98.6251 377.089 95.0657 373.321H95.0629ZM83.2435 335.946L82.4146 332.546L100.352 375.96L99.86 376.164L83.2435 335.946Z" fill="#CFD7E5"/>
<path fill-rule="evenodd" clip-rule="evenodd" d="M98.7945 396.414C98.7945 396.414 85.2356 382.103 88.4117 360.117C91.5879 338.132 116.287 338.156 116.112 359.515C115.937 380.873 111.467 386.812 98.7945 396.414Z" fill="#CFD7E5"/>
<path d="M99.8595 394.68L99.3907 394.552L106.157 349.603L107.117 346.581L100.356 391.726L113.362 354.623L113.462 355.989L99.8595 394.68ZM98.6566 395.018L91.3932 360.237L91.332 357.561L98.5353 391.796L96.6083 348.444L97.3942 352.875L99.148 394.88L98.6572 395.018L98.6566 395.018Z" fill="white"/>
<path d="M113.407 390.034L104.679 391.45H113.407V390.034Z" fill="#727643"/>
<path fill-rule="evenodd" clip-rule="evenodd" d="M121.704 397.468L121.503 399.596L120.841 406.548L120.678 408.3L120.403 411.202L120.24 412.959L118.832 427.907L117.84 438.39H72.2722L72.1293 436.088L70.3783 408.44L69.8229 399.596L69.7468 398.412L69.7181 397.997L69.4595 393.982L93.6532 395.598L94.974 395.685L98.9361 395.947L111.999 396.821L112.411 396.847L121.311 397.442L121.704 397.468Z" fill="#A1A7C4"/>
<path fill-rule="evenodd" clip-rule="evenodd" d="M68.9145 399.596L65.5459 385.326H125.619L121.829 399.596H68.9145Z" fill="#E1E7F1"/>
</g>
<defs>
<filter id="filter0_d" x="5" y="5" width="448" height="421" filterUnits="userSpaceOnUse" color-interpolation-filters="sRGB">
<feFlood flood-opacity="0" result="BackgroundImageFix"/>
<feColorMatrix in="SourceAlpha" type="matrix" values="0 0 0 0 0 0 0 0 0 0 0 0 0 0 0 0 0 0 127 0"/>
<feOffset dx="4" dy="4"/>
<feGaussianBlur stdDeviation="10"/>
<feColorMatrix type="matrix" values="0 0 0 0 0 0 0 0 0 0 0 0 0 0 0 0 0 0 0.08 0"/>
<feBlend mode="normal" in2="BackgroundImageFix" result="effect1_dropShadow"/>
<feBlend mode="normal" in="SourceGraphic" in2="effect1_dropShadow" result="shape"/>
</filter>
<linearGradient id="paint0_linear" x1="219.715" y1="424.467" x2="216.484" y2="435.893" gradientUnits="userSpaceOnUse">
<stop stop-color="#FF9652"/>
<stop offset="1" stop-color="#FFBE9D"/>
</linearGradient>
<linearGradient id="paint1_linear" x1="183.776" y1="424.467" x2="180.545" y2="435.893" gradientUnits="userSpaceOnUse">
<stop stop-color="#FF9652"/>
<stop offset="1" stop-color="#FFBE9D"/>
</linearGradient>
<linearGradient id="paint2_linear" x1="200.456" y1="209.646" x2="192.264" y2="269.669" gradientUnits="userSpaceOnUse">
<stop stop-color="#FF9652"/>
<stop offset="1" stop-color="#FFBE9D"/>
</linearGradient>
<linearGradient id="paint3_linear" x1="183.513" y1="211.665" x2="180.375" y2="225.975" gradientUnits="userSpaceOnUse">
<stop stop-color="#FF9652"/>
<stop offset="1" stop-color="#FFBE9D"/>
</linearGradient>
<linearGradient id="paint4_linear" x1="183.158" y1="190.461" x2="177.496" y2="211.975" gradientUnits="userSpaceOnUse">
<stop stop-color="#FF9652"/>
<stop offset="1" stop-color="#FFBE9D"/>
</linearGradient>
<linearGradient id="paint5_linear" x1="173.65" y1="202.35" x2="172.567" y2="207.506" gradientUnits="userSpaceOnUse">
<stop stop-color="#FF9652"/>
<stop offset="1" stop-color="#FFBE9D"/>
</linearGradient>
<linearGradient id="paint6_linear" x1="215.945" y1="259.53" x2="213.012" y2="264.136" gradientUnits="userSpaceOnUse">
<stop stop-color="#FF9652"/>
<stop offset="1" stop-color="#FFBE9D"/>
</linearGradient>
<linearGradient id="paint7_linear" x1="223.024" y1="245.897" x2="218.701" y2="260.412" gradientUnits="userSpaceOnUse">
<stop stop-color="#FF9652"/>
<stop offset="1" stop-color="#FFBE9D"/>
</linearGradient>
<linearGradient id="paint8_linear" x1="82.953" y1="347.857" x2="75.4394" y2="350.266" gradientUnits="userSpaceOnUse">
<stop stop-color="#075983"/>
<stop offset="1" stop-color="#1292B9"/>
</linearGradient>
<clipPath id="clip0">
<rect width="450" height="450" fill="white"/>
</clipPath>
</defs>
</svg>
