<svg width="450" height="450" viewBox="0 0 450 450" fill="none" xmlns="http://www.w3.org/2000/svg">
<g clip-path="url(#clip0)">
<g opacity="0.2" filter="url(#filter0_d)">
<path fill-rule="evenodd" clip-rule="evenodd" d="M35.366 203.598C37.3275 155.628 20.5262 104.474 58.3714 67.4756C97.9426 28.7902 161.488 22.1507 220.447 22.6589C285.602 23.2204 361.964 23.9538 395.158 70.378C427.922 116.199 379.723 171.47 365.333 225.29C346.432 295.978 373.517 386.066 300.369 424.885C221.661 466.656 108.422 448.295 44.9671 395.307C-10.4148 349.061 32.6068 271.081 35.366 203.598Z" fill="#D4DEE8"/>
</g>
<path fill-rule="evenodd" clip-rule="evenodd" d="M237 425C360.711 425 461 431.045 461 438.501C461 445.956 360.711 452 237 452C113.288 452 13 445.956 13 438.501C13 431.045 113.288 425 237 425Z" fill="#E1E7F1" fill-opacity="0.3"/>
<path fill-rule="evenodd" clip-rule="evenodd" d="M179.347 309.035C177.118 308.913 174.197 308.791 171.159 308.802L171.395 307.317C158.858 305.873 138.415 303.416 137.748 302.676L118.722 276.752C122.331 273.235 124.325 267.775 127.908 264.22C134.656 273.729 140.812 283.646 146.342 293.914L180.35 302.455C183.42 301.769 188.315 301.17 188.969 301.378C189.745 301.626 194.353 303.669 195.109 304.473C195.789 305.197 196.699 306.164 196.328 306.725C196.328 306.725 197.835 308.727 197.319 308.993C196.803 309.26 193.756 308.059 192.705 307.555C191.657 307.038 190.471 306.874 189.322 307.088C188.546 307.361 185.2 309.234 183.382 309.265H183.347C182.991 309.269 181.488 309.152 179.347 309.035Z" fill="#FFAF81"/>
<path d="M130.403 291.089C130.403 291.089 120.61 277.999 117.047 271.805C113.483 265.611 119.482 269.643 125.614 268.015C127.946 267.396 126.014 254.703 130.403 259.126C137.605 266.397 144.825 282.148 144.825 282.148L130.403 291.089Z" fill="#C5001A"/>
<path fill-rule="evenodd" clip-rule="evenodd" d="M143.483 425.056C143.483 425.056 142.961 433.66 142.961 433.679C142.77 434.77 142.028 437.468 142.028 438.462C142.028 442.199 159.711 435.295 155.751 433.641C155.392 433.492 153.513 432.359 153.394 431.091C153.212 429.134 152.751 425.178 152.751 425.178L143.483 425.056Z" fill="url(#paint0_linear)"/>
<path d="M154.766 432.907C154.766 432.907 150.614 434.049 148.487 434.334C146.361 434.619 143.558 432.216 142.054 432.865C140.399 433.579 140.461 440.007 140.461 440.007C140.461 440.007 162.726 441.838 168.988 439.944C171.464 439.194 163.25 435.565 154.766 432.907Z" fill="#2F2F2F"/>
<path fill-rule="evenodd" clip-rule="evenodd" d="M174.248 425.057C174.248 425.057 173.726 433.661 173.726 433.68C173.534 434.77 172.793 437.47 172.793 438.463C172.793 442.199 190.478 435.296 186.516 433.642C186.157 433.493 183.485 433.019 183.361 431.748C183.179 429.793 182.841 423.741 182.841 423.741L174.248 425.057Z" fill="url(#paint1_linear)"/>
<path d="M185.391 432.907C185.391 432.907 181.239 434.049 179.112 434.334C176.986 434.619 174.183 432.216 172.679 432.865C171.022 433.579 171.088 440.007 171.088 440.007C171.088 440.007 193.353 441.838 199.613 439.944C202.094 439.194 193.878 435.565 185.391 432.907Z" fill="#2F2F2F"/>
<path d="M116.647 332.669L158.916 332.851C158.916 332.851 178.011 332.351 181.032 338.965C184.054 345.579 183.331 429.581 183.331 429.581C183.331 429.581 173.139 431.099 172.618 430.538L161.14 380.245C159.914 375.983 159.497 371.527 159.909 367.111L161.005 355.416L143.562 356.308C143.562 356.308 123.788 355.993 117.269 349.423C110.75 342.853 116.647 332.669 116.647 332.669Z" fill="#2D2D2F"/>
<path d="M88.0006 328L133.452 330.803C133.452 330.803 153.012 332.393 156.031 339.01C159.05 345.627 154.102 430.345 154.102 430.345C154.102 430.345 142.757 431.046 142.778 430.545C142.806 429.952 138.114 391.737 135.522 379.632C134.7 375.792 134.412 371.856 134.667 367.936L136.299 354.374C136.299 354.374 94.0813 354.141 91.9823 352.022C85.4759 345.446 88.0006 328 88.0006 328Z" fill="#444444"/>
<path d="M129.349 258.257C123.02 256.337 111.163 255.331 111.163 255.331C111.163 255.331 103.735 254.121 101.32 254.648C97.7663 255.417 91.0954 255.77 90.4732 271.228C90.0302 282.284 88.7732 309.637 87.5142 328.109L132.746 330.86C130.713 302.43 135.344 260.077 129.349 258.257Z" fill="#9A0115"/>
<path fill-rule="evenodd" clip-rule="evenodd" d="M111.885 241.041L108.144 255.452C108.144 255.452 115.644 263.422 120.621 262.44C124.796 261.618 120.623 255.844 120.623 255.844C120.623 255.844 121.315 247.631 122.419 243.601C123.523 239.571 111.885 241.041 111.885 241.041Z" fill="#FFAF81"/>
<path fill-rule="evenodd" clip-rule="evenodd" d="M110.11 218.764C109.773 218.631 106.919 236.204 111.291 241.181C115.663 246.157 124.394 247.974 127.642 244.238C131.24 240.108 131.583 221.145 124.717 215.965C117.85 210.784 110.11 218.764 110.11 218.764Z" fill="#FFAF81"/>
<path d="M133.139 212.618C127.184 211.086 109.857 207.885 108.264 215.07C92.9995 214.807 100.986 233.923 105.817 237.876C105.77 246.324 110.461 246.244 110.461 246.244L111.304 243.98C111.938 242.268 112.198 240.44 112.067 238.619C112.004 237.504 112.665 232.167 112.256 231.127C111.133 228.544 114.972 233.487 116.078 231.392C116.929 229.779 116.122 223.736 117.461 221.069C117.461 221.069 125.28 225.524 128.963 223.183C132.371 224.045 139.857 214.346 133.139 212.618Z" fill="#2D2D2F"/>
<path fill-rule="evenodd" clip-rule="evenodd" d="M114.008 235.166C113.703 235.706 113.146 236.055 112.528 236.096C111.278 236.089 111.556 235.401 109.722 233.01C107.888 230.619 111.747 226.081 113.689 230.735" fill="url(#paint2_linear)"/>
<path fill-rule="evenodd" clip-rule="evenodd" d="M181.231 308.451C180.292 307.918 179.206 307.702 178.134 307.835C177.407 308.046 174.215 309.589 172.539 309.517C172.025 309.483 166.592 308.716 161.191 308.383L161.184 308.405C161.184 308.405 122.401 305.653 121.601 304.589L98.519 281.584C102.121 278.635 103.66 270.78 107.251 267.805C117.305 281.743 128.001 293.855 128.001 293.855L162.461 302.986L162.49 302.902C163.206 303.102 164.131 303.338 164.745 303.509C166.062 303.766 167.421 303.702 168.708 303.322C171.138 302.706 177.405 302.254 178.114 302.528C178.822 302.802 182.954 304.938 183.607 305.72C184.197 306.426 184.98 307.369 184.606 307.867C184.606 307.867 185.896 309.812 185.405 310.031C185.357 310.05 185.305 310.059 185.252 310.057C184.5 310.057 182.095 308.931 181.231 308.451Z" fill="url(#paint3_linear)"/>
<path d="M106.498 293.388C106.498 293.388 94.6068 278.266 91.7177 272.327C88.8286 266.388 91.9162 256.991 97.6752 255.879C103.434 254.767 120.107 281.893 120.107 281.893L106.498 293.388Z" fill="#C5001A"/>
<path fill-rule="evenodd" clip-rule="evenodd" d="M101.037 435.239C101.037 434.468 101.344 433.728 101.888 433.183C102.433 432.637 103.172 432.331 103.942 432.332H109.364C110.134 432.331 110.873 432.637 111.418 433.183C111.962 433.728 112.268 434.468 112.267 435.239H128.263C130.301 435.239 131.953 436.895 131.953 438.936C131.953 439.108 131.885 439.273 131.764 439.394C131.643 439.515 131.479 439.584 131.308 439.584H80.9599C80.6039 439.583 80.3164 439.293 80.3164 438.936C80.3164 436.895 81.9674 435.24 84.0049 435.239H101.037ZM104.289 367.086H108.743V432.329H104.289V367.086Z" fill="#A1A7C4"/>
<path fill-rule="evenodd" clip-rule="evenodd" d="M135.187 359.574L132.142 346.87C129.979 337.96 122.197 331.556 113.052 331.159L74.4857 329.596L73.2939 325.664L113.208 327.28C124.084 327.752 133.338 335.368 135.911 345.963L139.147 359.455C138.051 359.512 136.712 359.546 135.187 359.574Z" fill="#A1A7C4"/>
<path fill-rule="evenodd" clip-rule="evenodd" d="M83.4575 352.813C83.4575 352.813 136.444 353.722 141.98 352.813C147.515 351.904 149.895 358.841 148.247 362.475C146.598 366.108 142.063 367.513 135.383 367.846C128.703 368.18 73.1307 369.745 71.5652 368.26C70.2875 367.046 53.4397 309.352 47.317 288.254C46.0956 284.039 48.511 279.629 52.7163 278.396C56.9 277.171 61.2887 279.548 62.5554 283.726L83.4575 352.813Z" fill="#CFD7E5"/>
<path d="M144.079 115H235.572C237.718 115.004 239.775 115.861 241.29 117.384C242.805 118.907 243.654 120.97 243.65 123.12V176.696C243.654 178.846 242.805 180.909 241.29 182.432C239.775 183.955 237.718 184.813 235.572 184.816H171.555C167.437 190.59 159.977 200.927 159.319 200.927C158.704 200.927 159.889 191.164 160.727 184.816H144.079C141.933 184.813 139.875 183.955 138.36 182.432C136.845 180.909 135.996 178.846 136 176.696V123.12C135.996 120.97 136.845 118.907 138.36 117.384C139.875 115.861 141.933 115.003 144.079 115Z" fill="#CFD7E5"/>
<path d="M231.674 144.948H190.668C190.528 144.948 190.412 145.058 190.405 145.198V148.356C190.412 148.496 190.528 148.606 190.668 148.606H231.674C231.814 148.606 231.929 148.496 231.936 148.356V145.198C231.93 145.058 231.814 144.948 231.674 144.948Z" fill="white"/>
<path d="M150.096 148.613H184.329C184.454 148.613 184.555 148.512 184.555 148.387V145.176C184.555 145.051 184.454 144.95 184.329 144.95H150.096C149.971 144.95 149.87 145.051 149.87 145.176V148.387C149.87 148.512 149.971 148.613 150.096 148.613Z" fill="white"/>
<path d="M149.945 136.645H195.567C195.692 136.645 195.793 136.543 195.793 136.418V133.208C195.793 133.083 195.692 132.981 195.567 132.981H149.945C149.82 132.981 149.719 133.083 149.719 133.208V136.418C149.719 136.543 149.82 136.645 149.945 136.645Z" fill="white"/>
<path d="M149.722 172.053H231.917V168.39H149.722V172.053Z" fill="white"/>
<path d="M192.828 160.472H231.921V156.809H192.828V160.472Z" fill="white"/>
<path d="M149.867 160.472H188.96V156.809H149.867V160.472Z" fill="white"/>
<path fill-rule="evenodd" clip-rule="evenodd" d="M314.976 440H321L308.022 312H302L314.976 440Z" fill="#A1A7C4"/>
<path fill-rule="evenodd" clip-rule="evenodd" d="M266.022 440H260L272.976 312H279L266.022 440Z" fill="#A1A7C4"/>
<path fill-rule="evenodd" clip-rule="evenodd" d="M215.295 440H221L208.708 312H203L215.295 440Z" fill="#A1A7C4"/>
<path fill-rule="evenodd" clip-rule="evenodd" d="M171.706 440H166L178.294 312H184L171.706 440Z" fill="#A1A7C4"/>
<path d="M302.404 102H366.597C368.564 102.003 370.449 102.784 371.837 104.169C373.226 105.555 374.004 107.432 374 109.388V158.132C374.004 160.088 373.226 161.966 371.837 163.351C370.449 164.737 368.564 165.517 366.597 165.521H337.411L341.958 188L317.661 165.521H302.404C300.437 165.517 298.552 164.737 297.163 163.352C295.775 161.966 294.997 160.089 295 158.132V109.388C294.997 107.432 295.775 105.554 297.163 104.169C298.552 102.783 300.437 102.003 302.404 102Z" fill="#CFD7E5"/>
<path d="M332.315 158C332.247 158 332.175 157.998 332.105 157.995C331.506 157.973 330.923 157.841 330.405 157.609C329.858 157.354 329.386 157.014 329.02 156.612C328.611 156.178 328.299 155.695 328.099 155.182C327.889 154.631 327.786 154.06 327.792 153.487C327.784 152.905 327.887 152.325 328.099 151.766C328.294 151.265 328.606 150.794 329.02 150.379C329.376 150.009 329.834 149.704 330.36 149.485C330.865 149.285 331.427 149.183 331.996 149.188C332.032 149.188 332.068 149.188 332.105 149.189C332.688 149.198 333.259 149.319 333.766 149.54C334.314 149.79 334.788 150.125 335.158 150.523C335.581 150.964 335.901 151.459 336.102 151.985C336.318 152.561 336.424 153.159 336.416 153.759C336.424 154.338 336.318 154.913 336.102 155.468C335.901 155.97 335.581 156.44 335.158 156.855C334.808 157.208 334.364 157.501 333.856 157.715C333.381 157.905 332.852 158.003 332.315 158ZM334.632 143.312L328.249 143.279C327.997 142.351 327.875 141.405 327.884 140.457C327.874 139.554 327.994 138.654 328.241 137.771C328.456 137.009 328.817 136.276 329.313 135.595C330.257 134.319 331.678 132.877 333.538 131.308C335.268 129.819 336.587 128.456 337.458 127.256C338.326 126.057 338.765 124.58 338.765 122.865C338.765 121.15 338.182 119.752 337.033 118.711C336.008 117.788 334.6 117.32 332.849 117.32C332.639 117.32 332.42 117.326 332.2 117.34C331.003 117.399 329.859 117.736 328.918 118.305C328.02 118.849 327.525 119.215 326.956 119.945C326.894 120.01 326.79 120.044 326.686 120.033C326.287 120.033 325.597 119.764 324.971 119.362C324.217 118.889 323.634 118.276 323.276 117.582C322.758 116.521 322.716 114.875 325.452 113.056C326.414 112.487 327.486 112.036 328.628 111.72C329.899 111.372 331.221 111.148 332.565 111.055C333.041 111.018 333.514 111 333.971 111C334.953 110.997 335.931 111.087 336.884 111.268C337.807 111.446 338.695 111.716 339.525 112.072C340.54 112.512 341.46 113.068 342.253 113.722C343.072 114.405 343.76 115.174 344.297 116.006C344.869 116.89 345.298 117.824 345.574 118.787C345.862 119.808 346.005 120.85 346 121.895C346.005 122.836 345.924 123.776 345.757 124.709C345.61 125.528 345.365 126.336 345.027 127.121C344.483 128.426 343.695 129.664 342.686 130.795C341.59 131.941 340.402 133.035 339.13 134.069C337.512 135.393 336.325 136.508 335.604 137.381C334.878 138.257 334.51 139.351 334.51 140.632C334.51 141.46 334.551 142.361 334.631 143.312L334.632 143.312Z" fill="white"/>
<path fill-rule="evenodd" clip-rule="evenodd" d="M342.28 432.261C342.28 430.461 343.736 429.002 345.533 429H351.607C353.404 429.002 354.86 430.461 354.86 432.261L374.711 432.262C376.993 432.26 378.845 434.111 378.848 436.397C378.847 436.797 378.523 437.121 378.123 437.121H321.725C321.326 437.121 321.001 436.797 321 436.397C321.004 434.112 322.854 432.262 325.135 432.262H342.28V432.261Z" fill="#A1A7C4"/>
<path d="M261.553 284.934C261.771 286.529 263.231 287.652 264.826 287.45C266.378 287.024 267.296 285.422 266.88 283.865C266.662 282.27 265.201 281.15 263.607 281.355C262.058 281.781 261.141 283.378 261.553 284.934Z" fill="white"/>
<path d="M141.222 312.352H335.444C336.119 312.352 336.666 311.804 336.666 311.127V308.02C336.666 307.344 336.119 306.796 335.444 306.796H141.222C140.547 306.796 140 307.344 140 308.02V311.127C140 311.804 140.547 312.352 141.222 312.352Z" fill="#2D2D2F"/>
<path fill-rule="evenodd" clip-rule="evenodd" d="M297.401 300.108L328.943 292.215C334.36 282.458 340.39 273.036 347 264C350.512 267.376 352.464 272.563 356 275.905L335.445 301.107C334.498 302.125 295 306 295 306L297.401 300.108Z" fill="#FFAF81"/>
<path d="M340.37 233.953C340.021 228.195 341.122 222.442 343.573 217.21C345.803 212.613 351.317 210.017 356.348 210C372.317 209.979 374.346 230.883 384.517 238.951C387.622 241.416 391.095 243.423 394.034 246.079C404.888 255.891 399.998 274.056 390.031 282.66C383.115 288.627 372.248 292.022 363.722 287.356C359.273 284.919 355.894 280.859 353.485 276.432C350.069 270.133 347.865 262.869 345.439 256.158C342.857 249.017 340.69 241.58 340.37 233.953Z" fill="#2D2D2F"/>
<path fill-rule="evenodd" clip-rule="evenodd" d="M349.822 287.752C349.822 287.752 361.446 275.355 364.435 269.97C367.424 264.586 362.391 268.08 357.264 266.674C355.317 266.137 355.81 254.281 352.137 258.135C346.104 264.458 338.52 275.501 338.52 275.501L349.822 287.752Z" fill="#C5001A"/>
<path d="M346.563 429.851H351.031V364.61H346.563V429.851Z" fill="#A1A7C4"/>
<path fill-rule="evenodd" clip-rule="evenodd" d="M296.214 412.87C296.214 412.87 295.249 423.266 295.883 426.654C296.009 427.218 296.173 427.773 296.372 428.315C297.026 430.217 295.238 436.02 295.238 436.02L271.255 436.106C269.949 436.106 270.821 435.293 271.885 434.543C273.625 433.315 275.027 432.507 280.566 429.948C280.926 429.781 282.244 428.989 282.72 428.699C284.001 427.886 285.167 426.895 286.187 425.753C287.932 423.885 288.197 414.723 288.197 414.723L296.214 412.87Z" fill="#FFAF81"/>
<path fill-rule="evenodd" clip-rule="evenodd" d="M282.635 428.413C288.886 430.033 293.536 429.038 296.142 428.063C296.786 429.894 297.897 436.774 297.172 436.774C291.224 436.774 286.296 437.171 269.258 436.913C268.647 436.913 268.723 434.884 269.12 434.437C270.218 433.205 282.164 428.674 282.635 428.413Z" fill="#C5001A"/>
<path fill-rule="evenodd" clip-rule="evenodd" d="M276.854 396.525C276.854 396.525 271.595 405.263 270.743 408.486C270.621 409.03 270.536 409.582 270.489 410.137C270.284 412.061 266.207 416.445 266.207 416.445L244.291 407.042C243.095 406.529 244.24 406.157 245.525 405.919C247.619 405.531 249.248 405.374 255.38 405.321C255.779 405.321 257.321 405.133 257.873 405.09C259.387 404.881 260.866 404.472 262.272 403.875C264.656 402.927 268.758 394.996 268.758 394.996L276.854 396.525Z" fill="#FFAF81"/>
<path fill-rule="evenodd" clip-rule="evenodd" d="M258.092 405.074C263.107 409.146 267.785 410.122 270.598 410.285C270.395 412.256 268.826 418.518 268.163 418.222C262.722 415.786 257.646 414.736 242.168 407.517C241.614 407.258 242.559 405.406 243.114 405.147C244.654 404.444 257.543 405.124 258.092 405.074Z" fill="#C5001A"/>
<path d="M344.483 320.815V326.022L293.164 336.31L280.429 372.82L287.526 368.194L285.886 424.416L296.68 424.488C296.68 424.488 315.377 377.338 309.249 353.607L366.046 354.437C366.046 354.437 391.787 344.951 378.503 316.351L344.483 320.815Z" fill="#2D2D2F"/>
<path d="M349.244 326.181C349.244 326.181 296.424 326.523 292.67 329.308C288.916 332.093 260.768 401.3 260.768 401.3L273.047 405.721C273.047 405.721 297.472 366.455 298.764 363.654C300.056 360.852 309.518 340.38 313.13 338.291C316.742 336.202 349.244 326.181 349.244 326.181Z" fill="#444444"/>
<path fill-rule="evenodd" clip-rule="evenodd" d="M363.716 252.546C363.716 252.546 374.302 250.449 379.132 254.503C383.961 258.557 378.097 294.661 378.101 300.635C378.106 306.609 381.417 323.526 381.417 323.526C381.417 323.526 349.339 329.188 344.245 320.21C344.245 320.21 342.795 285.985 343.01 281.681C343.225 277.377 347.982 259.78 349.295 257.89C350.609 256 363.716 252.546 363.716 252.546Z" fill="#9A0115"/>
<path fill-rule="evenodd" clip-rule="evenodd" d="M363.853 236.16C363.853 236.16 363.912 236.482 364.016 237.028C364.521 239.653 366.47 248.358 367.785 250.75C369.375 253.642 362.344 262.865 355.576 261.74C353.562 261.404 357.283 253.273 357.101 252.4C356.759 250.753 356.294 248.497 355.82 246.19C355.552 244.887 355.281 243.565 355.027 242.326C354.296 238.801 353.713 235.917 353.713 235.917L363.853 236.16Z" fill="#FFAF81"/>
<path fill-rule="evenodd" clip-rule="evenodd" d="M346.27 234.627C347.114 236.276 348.526 237.188 349.428 236.662C350.33 236.136 350.378 234.385 349.537 232.737C348.695 231.089 347.28 230.178 346.379 230.704C345.477 231.23 345.428 232.983 346.27 234.627Z" fill="#FFAF81"/>
<path fill-rule="evenodd" clip-rule="evenodd" d="M355.803 218.069C355.803 218.069 360.283 217.545 363.093 221.226C365.902 224.907 368.926 236.288 361.95 242.476C354.973 248.664 348.081 241.658 347.059 234.234C346.036 226.809 345.639 217.8 355.803 218.069Z" fill="#FFAF81"/>
<path d="M355.5 217.268C355.5 217.268 361.517 228.208 365.822 228.711C370.127 229.213 370.693 235.023 370.693 235.023C370.693 235.023 369.155 221.628 364.89 219.046C360.626 216.464 355.5 217.268 355.5 217.268Z" fill="#2F2F2F"/>
<path d="M348.705 216.913C348.705 216.913 343.023 222.103 345.324 226.087C348.705 223.383 354.468 223.383 356.181 218.066C357.893 212.75 348.705 216.913 348.705 216.913Z" fill="#2F2F2F"/>
<path fill-rule="evenodd" clip-rule="evenodd" d="M365.806 233.184C365.778 233.601 366.004 233.984 366.346 234.098C367.411 234.362 368.518 232.978 368.827 231.029C369.135 229.08 368.517 227.277 367.451 227.013C366.649 226.813 365.821 227.549 365.331 228.762" fill="#FFAF81"/>
<path fill-rule="evenodd" clip-rule="evenodd" d="M372.031 350.421C372.031 350.421 319.449 351.323 313.968 350.421C308.487 349.52 306.111 356.412 307.75 360.024C309.389 363.636 313.887 365.027 320.513 365.36C327.138 365.694 382.285 367.248 383.84 365.771C385.111 364.564 401.828 307.231 407.911 286.262C409.129 282.072 406.734 277.684 402.558 276.457C398.402 275.232 394.039 277.597 392.784 281.756L372.031 350.421Z" fill="#CFD7E5"/>
<path fill-rule="evenodd" clip-rule="evenodd" d="M328.453 300.928C329.219 301.314 350.392 297.826 356.442 297.826C357.143 295.876 361.412 282.447 362.035 280.603C365.268 282.951 370.922 284.26 374.268 286.393C371.825 292.5 362.833 307.304 361.141 308.071C355.991 310.393 330.783 308.857 326.827 305.991C326.608 307.07 318.883 306.139 317.309 305.199C312.219 308.154 307.347 306.575 305.619 305.991C304.194 305.509 312.274 302.206 317.309 300.065C320.037 298.909 328.094 300.748 328.453 300.928Z" fill="#FFAF81"/>
<path fill-rule="evenodd" clip-rule="evenodd" d="M374.982 287.752C374.982 287.752 381.998 272.146 383.064 266.089C384.131 260.032 378.95 252.43 373.518 252.92C368.086 253.41 359.969 280.362 359.969 280.362L374.982 287.752Z" fill="#C5001A"/>
<path fill-rule="evenodd" clip-rule="evenodd" d="M233.156 265H282.965C284.283 265 285.469 265.799 285.967 267.021L301.308 304.49H328.766C329.135 304.489 329.49 304.636 329.751 304.897C330.012 305.158 330.159 305.513 330.159 305.883C330.157 306.651 329.534 307.273 328.766 307.272H250.613C248.464 307.272 246.515 306.009 245.635 304.046L230.192 269.587C229.742 268.58 229.831 267.413 230.43 266.487C231.028 265.561 232.054 265.001 233.156 265Z" fill="#A1A7C4"/>
</g>
<defs>
<filter id="filter0_d" x="-1.50626" y="4.28183" width="435.38" height="471.1" filterUnits="userSpaceOnUse" color-interpolation-filters="sRGB">
<feFlood flood-opacity="0" result="BackgroundImageFix"/>
<feColorMatrix in="SourceAlpha" type="matrix" values="0 0 0 0 0 0 0 0 0 0 0 0 0 0 0 0 0 0 127 0"/>
<feOffset dx="4.58775" dy="4.58775"/>
<feGaussianBlur stdDeviation="11.4694"/>
<feColorMatrix type="matrix" values="0 0 0 0 0 0 0 0 0 0 0 0 0 0 0 0 0 0 0.08 0"/>
<feBlend mode="normal" in2="BackgroundImageFix" result="effect1_dropShadow"/>
<feBlend mode="normal" in="SourceGraphic" in2="effect1_dropShadow" result="shape"/>
</filter>
<linearGradient id="paint0_linear" x1="146.009" y1="426.922" x2="149.261" y2="438.422" gradientUnits="userSpaceOnUse">
<stop stop-color="#FF9652"/>
<stop offset="1" stop-color="#FFBE9D"/>
</linearGradient>
<linearGradient id="paint1_linear" x1="177.28" y1="425.776" x2="180.5" y2="438.201" gradientUnits="userSpaceOnUse">
<stop stop-color="#FF9652"/>
<stop offset="1" stop-color="#FFBE9D"/>
</linearGradient>
<linearGradient id="paint2_linear" x1="112.443" y1="236.148" x2="112.166" y2="234.202" gradientUnits="userSpaceOnUse">
<stop stop-color="#FF9652"/>
<stop offset="1" stop-color="#FFBE9D"/>
</linearGradient>
<linearGradient id="paint3_linear" x1="130.927" y1="293.898" x2="132.16" y2="290.363" gradientUnits="userSpaceOnUse">
<stop stop-color="#FFAF81"/>
<stop offset="1" stop-color="#FFBE9D"/>
</linearGradient>
<clipPath id="clip0">
<rect width="450" height="450" fill="white"/>
</clipPath>
</defs>
</svg>
