<svg width="450" height="450" viewBox="0 0 450 450" fill="none" xmlns="http://www.w3.org/2000/svg">
<g clip-path="url(#clip0)">
<path fill-rule="evenodd" clip-rule="evenodd" d="M225.5 426C350.04 426 451 431.373 451 438.001C451 444.628 350.04 450 225.5 450C100.959 450 0 444.628 0 438.001C0 431.373 100.959 426 225.5 426Z" fill="#E1E7F1" fill-opacity="0.3"/>
<g opacity="0.2" filter="url(#filter0_d)">
<path fill-rule="evenodd" clip-rule="evenodd" d="M69.0802 182.271C70.9315 137.102 55.0743 88.9358 90.793 54.0975C128.14 17.6711 188.115 11.4193 243.761 11.8978C305.255 12.4265 377.326 13.1171 408.655 56.8305C439.577 99.9761 394.087 152.019 380.505 202.696C362.666 269.257 388.23 354.084 319.192 390.637C244.906 429.968 138.031 412.679 78.1419 362.785C25.872 319.24 66.476 245.814 69.0802 182.271Z" fill="#CFD7E5"/>
</g>
<path d="M324.786 59H123.214C118.678 59 115 62.6706 115 67.1985V354.802C115 359.329 118.678 363 123.214 363H324.786C329.322 363 333 359.329 333 354.802V67.1985C333 62.6706 329.322 59 324.786 59Z" fill="#E1E7F1"/>
<path fill-rule="evenodd" clip-rule="evenodd" d="M142.255 101C140.326 100.998 138.637 99.7767 138.143 98.0199C137.431 95.4821 139.467 93 142.255 93C142.262 93 142.269 93 142.275 93L300.796 93.6805C302.54 93.6882 303.959 94.9996 303.999 96.6389C304.036 98.3246 302.602 99.7149 300.809 99.7288L142.293 100.998C142.28 101 142.269 101 142.255 101Z" fill="#A1A7C4"/>
<path fill-rule="evenodd" clip-rule="evenodd" d="M142.255 138C140.326 138 138.637 136.625 138.143 134.648C137.431 131.793 139.467 129 142.255 129C142.262 129 142.269 129 142.275 129L300.796 129.764C302.54 129.773 303.959 131.248 303.999 133.093C304.036 134.99 302.602 136.554 300.809 136.57L142.293 138C142.28 138 142.269 138 142.255 138Z" fill="#A1A7C4"/>
<path fill-rule="evenodd" clip-rule="evenodd" d="M142.255 175C140.326 175 138.637 173.624 138.143 171.647C137.431 168.792 139.467 166 142.255 166C142.262 166 142.269 166 142.275 166L300.796 166.766C302.54 166.774 303.959 168.25 303.999 170.094C304.036 171.99 302.602 173.554 300.809 173.57L142.293 175C142.28 175 142.269 175 142.255 175Z" fill="#A1A7C4"/>
<path fill-rule="evenodd" clip-rule="evenodd" d="M140.718 207C139.485 207 138.405 205.778 138.091 204.021C137.637 201.483 138.936 199 140.716 199C140.721 199 140.726 199 140.729 199L241.954 199.679C243.067 199.687 243.975 201 244 202.638C244.024 204.324 243.108 205.715 241.963 205.729L140.741 207C140.732 207 140.724 207 140.718 207Z" fill="#A1A7C4"/>
<path fill-rule="evenodd" clip-rule="evenodd" d="M140.718 235C139.485 235 138.405 233.778 138.091 232.021C137.637 229.483 138.936 227 140.716 227C140.721 227 140.726 227 140.729 227L241.954 227.679C243.067 227.687 243.975 229 244 230.638C244.024 232.324 243.108 233.715 241.963 233.729L140.741 235C140.732 235 140.724 235 140.718 235Z" fill="#A1A7C4"/>
<path d="M390.549 435.18L387.969 397.042L388.418 397.012L390.999 435.149L390.55 435.18" fill="#2FB193"/>
<path d="M384.043 434.407L377.777 330.971L378.227 330.943L384.492 434.382L384.043 434.409" fill="#2FB193"/>
<path d="M386.877 436.61H387.327V315.94H386.877V436.61Z" fill="#2FB193"/>
<path d="M391.462 435.742L391.012 435.732L392.653 363.484L393.103 363.494L391.462 435.742Z" fill="#2FB193"/>
<path fill-rule="evenodd" clip-rule="evenodd" d="M386.838 340.624C386.838 340.624 374.274 329.927 378.003 319.251C381.732 308.576 400.142 314.353 394.293 333.613C392.848 336.852 390.163 339.377 386.838 340.624Z" fill="#CFD7E5"/>
<path d="M385.631 335.507L385.999 317.406L386.391 320.29L386.082 335.516L385.631 335.507ZM390.227 335.204L391.2 323.75L391.796 322.05L390.675 335.239L390.227 335.204ZM379.979 320.145L380.771 322.051L382.611 332.489L382.168 332.566L379.979 320.145Z" fill="white"/>
<path fill-rule="evenodd" clip-rule="evenodd" d="M378.897 358.18C378.897 358.18 368.008 344.109 373.677 334.166C379.346 324.222 415.826 332.442 399.333 368.327C382.84 404.213 370.097 380.076 370.097 380.076L378.897 358.18Z" fill="#A1A7C4"/>
<path d="M388.436 383.808L388.001 383.693L397.895 346.53L399.074 343.85L388.436 383.808ZM385.307 380.272L384.858 380.252L386.763 338.367L387.321 336.003L385.307 380.272ZM380.91 366.534L379.041 336.585L379.647 339.099L381.359 366.507L380.91 366.534V366.534Z" fill="white"/>
<path d="M387.101 370.831C387.101 370.831 385.46 346.689 371.587 355.582C357.714 364.476 354.284 399.336 387.101 409.929V370.831Z" fill="url(#paint0_linear)"/>
<path d="M387.101 370.831C387.101 370.831 385.46 346.689 371.587 355.582C357.714 364.476 354.284 399.336 387.101 409.929V370.831Z" fill="#E1E7F1"/>
<path d="M381.618 401.311C379.121 400.88 376.588 400.41 374.67 400.023C371.602 399.405 371.494 399.29 371.422 399.214L374.048 399.437C374.393 399.623 376.491 399.973 381.905 400.903C384.921 401.422 392.278 402.638 395.438 402.714L395.427 403.163C392.192 403.085 384.691 401.844 381.618 401.311ZM376.08 391.447C369.566 386.751 363.816 381.992 363.759 381.945L365.561 382.829C367.749 384.603 386.967 400.53 393.664 400.53V400.979C390.773 400.981 384.857 397.773 376.08 391.447ZM385.219 391.642C382.877 389.167 379.989 385.733 376.639 381.43C370.94 374.112 367.443 369.044 367.393 368.97L366.126 366.392C366.177 366.466 371.302 373.848 376.996 381.156C386.467 393.315 390.154 395.93 391.58 395.98L391.563 396.429C390.305 396.384 388.231 394.817 385.222 391.642H385.219ZM375.226 360.148L374.525 357.282L389.691 393.866L389.275 394.037L375.226 360.148Z" fill="white"/>
<path fill-rule="evenodd" clip-rule="evenodd" d="M388.375 411.101C388.375 411.101 376.912 399.042 379.597 380.516C382.282 361.989 403.165 362.01 403.017 380.008C402.869 398.006 399.089 403.01 388.375 411.101Z" fill="#CFD7E5"/>
<path d="M389.276 409.641L388.879 409.533L394.6 371.656L395.412 369.109L389.695 407.151L400.692 375.885L400.776 377.037L389.276 409.641ZM388.259 409.925L382.118 380.616L382.066 378.362L388.156 407.21L386.527 370.679L387.191 374.413L388.674 409.809L388.259 409.926L388.259 409.925Z" fill="white"/>
<path d="M400.731 405.726L393.351 406.919H400.731V405.726Z" fill="#727643"/>
<path fill-rule="evenodd" clip-rule="evenodd" d="M407.745 411.99L407.575 413.783L407.015 419.641L406.878 421.117L406.645 423.563L406.507 425.043L405.317 437.64L404.478 446.473H365.951L365.831 444.533L364.35 421.236L363.881 413.783L363.816 412.785L363.792 412.435L363.573 409.052L384.029 410.414L385.145 410.488L388.495 410.708L399.54 411.445L399.888 411.467L407.413 411.968L407.745 411.99Z" fill="#A1A7C4"/>
<path fill-rule="evenodd" clip-rule="evenodd" d="M363.113 413.783L360.265 401.758H411.055L407.851 413.783H363.113Z" fill="#E1E7F1"/>
<path fill-rule="evenodd" clip-rule="evenodd" d="M204.792 277.58C203.413 277.58 201.945 278.033 200.679 278.916C198.314 280.567 196.885 283.331 196.015 285.265C193.105 291.733 191.976 298.905 191.189 305.694C189.945 316.411 189.412 327.303 189.605 338.099C194.136 332.815 198.389 327.277 201.93 321.288C206.997 312.715 212.651 299.48 210.802 285.115C210.357 281.659 209.371 279.526 207.7 278.405C206.876 277.852 205.861 277.58 204.792 277.58ZM201.014 367.536C199.506 367.536 197.984 366.811 196.366 365.327C190.049 359.533 188.574 350.481 188.205 341.996C185.172 345.409 182.054 348.724 178.976 352.001L177.875 350.969C181.304 347.32 184.779 343.622 188.13 339.799C187.848 328.39 188.372 316.857 189.688 305.519C190.491 298.611 191.644 291.303 194.638 284.648C195.579 282.55 197.143 279.545 199.814 277.681C202.558 275.765 206.148 275.549 208.543 277.154C211.247 278.968 211.982 282.457 212.3 284.923C214.204 299.711 208.417 313.278 203.229 322.054C199.348 328.619 194.642 334.63 189.657 340.347C189.906 348.961 191.082 358.433 197.388 364.217C198.759 365.476 199.982 366.074 201.128 366.026C203.02 365.958 204.499 364.198 205.696 362.486C210.945 354.978 215.028 346.835 217.879 338.198C218.204 335.637 218.921 333.125 220.011 330.78L221.429 331.276C220.832 333.73 220.141 336.15 219.359 338.532C219.059 341.013 219.149 343.542 219.64 345.996C219.908 347.328 221.039 351.726 224.371 352.36C226.88 352.835 229.355 351.078 232.159 346.823L242.095 331.741L241.14 335.849C240.63 338.042 239.788 343.285 242.978 344.597C244.806 345.346 246.735 344.263 248.778 343.114C250.77 341.995 252.828 340.84 255.114 341.138L255.891 341.243L255.758 342.014C255.233 345.056 255.493 348.798 257.956 349.342C259.568 349.701 260.89 348.478 262.421 347.066C263.719 345.868 265.062 344.628 266.784 344.212L267.139 345.677C265.798 346 264.602 347.106 263.446 348.173C261.758 349.731 260.014 351.342 257.63 350.816C254.386 350.098 253.693 346.249 254.144 342.604C252.623 342.683 251.109 343.534 249.52 344.428C247.253 345.702 244.911 347.019 242.404 345.991C240.085 345.038 238.963 342.539 239.155 338.946L233.421 347.651C231.419 350.689 228.275 354.639 224.089 353.841C221.216 353.294 218.998 350.472 218.16 346.292C217.948 345.234 217.806 344.163 217.733 343.087C214.977 350.232 211.364 357.013 206.934 363.349C205.524 365.366 203.738 367.44 201.182 367.533C201.125 367.536 201.069 367.536 201.014 367.536Z" fill="url(#paint1_linear)"/>
<path fill-rule="evenodd" clip-rule="evenodd" d="M113.194 446.504C110.682 441.183 110.682 434.107 107.063 434.107H99.5198C97.1324 441.473 98.3065 441.798 96.559 447.613C94.8116 453.427 115.705 451.824 113.194 446.504Z" fill="#2D2D2F"/>
<path fill-rule="evenodd" clip-rule="evenodd" d="M100.223 437.092C100.399 437.712 101.048 438.175 101.835 438.229C102.798 438.296 104.982 438.335 106.36 438.186C107.596 438.053 108.456 437.132 108.239 436.144V428.638H97.8276L100.223 437.092Z" fill="#FFAF81"/>
<path fill-rule="evenodd" clip-rule="evenodd" d="M160.364 445.652C164.334 443.769 153.949 438.221 142.965 434.201L132.605 433.274C132.605 433.274 130.215 437.422 130.17 445.108C131.396 445.609 130.352 446.944 138.354 446.276C146.357 445.609 156.394 447.534 160.364 445.652Z" fill="#2D2D2F"/>
<path fill-rule="evenodd" clip-rule="evenodd" d="M130.001 427.592C130.137 427.987 131.922 434.002 132.614 436.336C132.779 436.89 133.47 437.297 134.294 437.325C135.763 437.376 138.135 437.382 140.172 437.036C141.272 436.85 142.012 436.149 141.933 435.373L140.971 425.858L130.001 427.592Z" fill="#FFAF81"/>
<path fill-rule="evenodd" clip-rule="evenodd" d="M130.165 300.877C130.165 300.877 147.749 430.998 141.698 432.616C135.648 434.235 132.03 435.71 130.169 432.616C128.928 430.554 123.52 397.445 113.947 333.289C112.963 392.971 111.548 426.572 109.702 434.094C109.561 434.666 102.273 438.244 98.2447 434.094C96.951 425.096 88.6603 359.514 88.9766 320.93C88.9945 318.755 93.72 300.877 93.72 300.877H130.165Z" fill="#444444"/>
<path fill-rule="evenodd" clip-rule="evenodd" d="M130.166 229.115L131.153 255.632C133.962 256.597 136.635 257.348 139.181 257.909C140.775 252.789 144.281 246.504 147.152 241.833C136.603 238.108 130.166 229.115 130.166 229.115Z" fill="#9A0115"/>
<path fill-rule="evenodd" clip-rule="evenodd" d="M182.838 228.664C168.366 244.268 156.651 245.185 147.152 241.833C144.281 246.504 140.775 252.789 139.181 257.909C177.829 266.417 186.929 230.938 186.929 230.938L182.838 228.664Z" fill="#FFAF81"/>
<path fill-rule="evenodd" clip-rule="evenodd" d="M185.773 227.007C185.773 227.007 187.44 225.219 190.526 225.781C193.61 226.342 196.357 227.412 198.279 225.781C200.202 224.148 200.878 226.34 200.878 226.34L195.122 230.708L185.773 227.007Z" fill="url(#paint2_linear)"/>
<path fill-rule="evenodd" clip-rule="evenodd" d="M182.329 230.063C182.329 230.063 183.472 225.293 186.914 225.946C190.357 226.6 198.171 230.844 200.185 230.063C202.2 229.281 204.774 227.409 206.096 228.071L203.768 230.96C203.768 230.96 209.752 227.514 210.781 229.631L200.826 235.226C200.826 235.226 186.261 233.769 182.329 230.063Z" fill="#FFAF81"/>
<path fill-rule="evenodd" clip-rule="evenodd" d="M90.31 308.03C89.3281 298.516 87.5374 246.99 117.558 222.722C117.558 222.722 119.28 218.223 133.43 229.281C147.581 240.337 140.004 251.926 136.617 267.911C132.516 287.253 131.37 298.461 131.37 306.751C131.37 315.041 91.2918 317.544 90.31 308.03Z" fill="#C5001A"/>
<path fill-rule="evenodd" clip-rule="evenodd" d="M129.268 205.046C129.258 205.886 117.271 222.889 117.271 222.889C117.271 222.889 119.423 227.119 129.695 230.555L138.561 212.351L129.268 205.046Z" fill="#FFAF81"/>
<path fill-rule="evenodd" clip-rule="evenodd" d="M138.706 195.304C138.706 195.304 142.971 205.087 143.257 210.224C143.544 215.358 144.653 218.691 138.706 219.725C132.76 220.76 127.751 217.802 125.037 212.685C125.037 212.685 120.784 204.803 121.739 201.575C122.693 198.347 138.706 195.304 138.706 195.304Z" fill="#FFAF81"/>
<path fill-rule="evenodd" clip-rule="evenodd" d="M127.069 209.008L127.408 208.859C127.838 208.669 128.023 208.157 127.806 207.74C126.968 206.121 125.333 202.414 127.445 201.549C130.167 200.434 140.946 198.239 143.272 194.419C145.508 190.749 143.528 186.009 140.551 184.662C140.351 184.571 140.117 184.643 140.014 184.836L139.766 185.304C139.596 185.626 139.121 185.577 139.021 185.228C138.924 184.895 138.478 184.829 138.293 185.124C137.578 186.267 135.648 188.12 130.486 189.071C123.151 190.423 118.3 193.388 118.179 198.449C118.172 198.771 117.83 198.95 117.554 198.783C117.012 198.454 116.145 198.299 114.988 199.27C112.973 200.963 113.797 205.351 118.214 208.96C118.424 209.131 118.422 209.459 118.194 209.607C117.394 210.127 116.201 211.365 119.294 213.016C122.491 214.723 124.88 214.583 125.801 214.433C126.029 214.394 126.177 214.174 126.126 213.947L125.146 209.498C125.089 209.246 125.282 209.008 125.54 209.008H127.069Z" fill="#444444"/>
<path fill-rule="evenodd" clip-rule="evenodd" d="M127.252 209.946C127.252 209.946 125.626 203.697 122.819 205.449C120.015 207.202 124.276 212.452 126.531 212.685L127.252 209.946Z" fill="#FFAF81"/>
<path fill-rule="evenodd" clip-rule="evenodd" d="M124.554 263.422C124.554 263.422 147.297 282.442 171.856 274.143C173.379 273.627 175.045 273.739 176.467 274.49L183.527 278.214C186.491 279.777 190.16 278.75 191.88 275.877C192.861 274.24 193.698 272.368 193.865 270.574L180.049 264.99L181.068 263.298C181.068 263.298 174.322 262.728 172.557 267.555C172.557 267.555 159.71 272.891 138.043 249.094C138.043 249.094 128.211 257.441 124.554 263.422Z" fill="#FFAF81"/>
<path fill-rule="evenodd" clip-rule="evenodd" d="M123.33 263.225C123.255 263.225 123.179 263.203 123.112 263.158C113.536 256.698 109.031 246.269 108.988 246.165C108.904 245.967 108.995 245.739 109.193 245.655C109.392 245.57 109.62 245.663 109.704 245.861C109.747 245.964 114.168 256.185 123.548 262.515C123.727 262.634 123.773 262.875 123.652 263.054C123.578 263.164 123.455 263.225 123.33 263.225Z" fill="#9A0115"/>
<path fill-rule="evenodd" clip-rule="evenodd" d="M137.592 248.771C137.465 248.771 137.34 248.708 137.265 248.592C137.236 248.547 134.311 244 128.738 234.036C127.025 230.972 124.773 229.032 122.046 228.271C117.527 227.01 113.175 229.429 113.132 229.452C112.944 229.555 112.708 229.494 112.6 229.306C112.495 229.12 112.56 228.883 112.747 228.777C112.935 228.67 117.413 226.168 122.249 227.52C125.187 228.338 127.599 230.403 129.418 233.657C134.977 243.596 137.891 248.127 137.921 248.172C138.035 248.352 137.985 248.592 137.804 248.708C137.738 248.751 137.665 248.771 137.592 248.771Z" fill="#9A0115"/>
<path fill-rule="evenodd" clip-rule="evenodd" d="M176.466 274.49C176.466 274.49 182.245 280.134 183.361 279.313C183.758 279.02 184.76 277.959 185.731 276.776C186.416 275.941 186.487 274.763 185.9 273.857L184.536 271.756C183.238 269.755 180.456 269.334 178.655 270.9C177.747 271.69 176.921 272.835 176.466 274.49Z" fill="#FFAF81"/>
<path fill-rule="evenodd" clip-rule="evenodd" d="M182.329 262.235C180.718 262.567 178.764 264.03 176.466 266.625C176.466 266.625 177.946 268.589 179.39 267.531C184.184 264.018 185.085 272.248 189.566 269.948C189.566 280.015 203.743 271.113 217.79 268.811C215.756 264.524 214.544 260.231 213.832 256.901C206.718 260.921 199.054 263.925 191.316 264.712C191.316 264.712 184.743 261.738 182.329 262.235Z" fill="#FFAF81"/>
<path fill-rule="evenodd" clip-rule="evenodd" d="M268.106 444.272C273 444.694 281.496 445.381 288.193 445.674C292.219 445.851 294.536 445.458 295.871 444.925C295.869 445.075 295.866 445.217 295.86 445.348C295.827 446.053 295.255 446.616 294.543 446.655C281.889 447.361 271.824 446.899 268.24 446.681C267.5 446.637 267.058 445.832 267.437 445.202C267.627 444.886 267.857 444.577 268.106 444.272Z" fill="url(#paint3_linear)"/>
<path fill-rule="evenodd" clip-rule="evenodd" d="M288.193 445.674C281.496 445.38 273 444.693 268.105 444.272C272.918 438.376 288.193 434.402 288.193 434.402H292.506C295.474 438.672 295.904 442.739 295.871 444.924C294.536 445.458 292.218 445.851 288.193 445.674Z" fill="#242021"/>
<path fill-rule="evenodd" clip-rule="evenodd" d="M293.233 427.369L292.829 435.346C292.786 436.209 292.138 436.936 291.273 437.06C290.41 437.182 289.255 437.199 288.032 436.792C287.278 436.541 286.718 435.907 286.58 435.135L285.185 427.369H293.233Z" fill="url(#paint4_linear)"/>
<path fill-rule="evenodd" clip-rule="evenodd" d="M349.269 445.614C351.391 445.319 352.352 444.218 352.754 443.041L352.762 443.072C353.074 444.314 352.35 445.601 350.903 446.213C349.152 446.952 347.241 447.079 345.755 447.018C344.163 446.952 342.7 446.294 341.896 445.24L341.884 445.224C343.484 446.015 345.728 446.108 349.269 445.614Z" fill="url(#paint5_linear)"/>
<path fill-rule="evenodd" clip-rule="evenodd" d="M339.26 427.317H342.818C348.236 427.207 351.64 438.62 352.755 443.041C352.352 444.218 351.391 445.319 349.269 445.614C345.728 446.108 343.484 446.015 341.884 445.224C338.957 441.377 337.505 435.743 336.807 432.455C336.013 428.715 339.26 427.317 339.26 427.317Z" fill="#242021"/>
<path fill-rule="evenodd" clip-rule="evenodd" d="M342.36 419.913L344.336 427.759C344.578 428.72 344.117 429.716 343.226 430.173C342.122 430.739 340.565 431.334 339.136 431.161C338.463 431.081 337.903 430.608 337.682 429.975L334.782 421.72L342.36 419.913Z" fill="url(#paint6_linear)"/>
<path d="M333.673 428.903C330.664 424.111 297.906 338.742 294.355 333.119C298.512 359.172 298.223 425.154 294.355 433.271C289.603 435.365 283.476 433.271 283.476 433.271C279.15 406.929 271.316 346.075 269.322 311.742C288.787 311.305 303.639 303.546 307.019 300.877C331.319 329.097 347.359 425.154 347.359 425.154C347.359 425.154 336.682 433.696 333.673 428.903Z" fill="url(#paint7_linear)"/>
<path d="M333.673 428.903C330.664 424.111 297.906 338.742 294.355 333.119C298.512 359.172 298.223 425.154 294.355 433.271C289.603 435.365 283.476 433.271 283.476 433.271C279.15 406.929 271.316 346.075 269.322 311.742C288.787 311.305 303.639 303.546 307.019 300.877C331.319 329.097 347.359 425.154 347.359 425.154C347.359 425.154 336.682 433.696 333.673 428.903Z" fill="#444444"/>
<path fill-rule="evenodd" clip-rule="evenodd" d="M250.239 225.293C250.239 225.293 234.314 245.324 213.833 256.901C214.544 260.231 215.756 264.524 217.79 268.811C228.414 267.071 240.71 262.915 251.134 253.683L250.239 225.293Z" fill="#C5001A"/>
<path fill-rule="evenodd" clip-rule="evenodd" d="M268.92 314.141C261.486 308.672 263.871 290.749 253.443 262.747C250.161 253.935 247.182 245.02 248.622 235.728L250.239 225.293C250.239 225.293 270.507 218.445 292.971 225.004C292.971 225.004 318.458 300.372 308.341 303.222C298.223 306.072 276.354 319.61 268.92 314.141Z" fill="#C5001A"/>
<path fill-rule="evenodd" clip-rule="evenodd" d="M253.689 211.976L258.944 224.583C259.277 225.378 259.993 225.946 260.845 226.092C263.876 226.611 271.204 227.421 276.016 224.262C276.589 223.885 276.735 223.106 276.343 222.544L266.633 208.625L253.689 211.976Z" fill="#FFAF81"/>
<path fill-rule="evenodd" clip-rule="evenodd" d="M266.651 271.225C265.928 271.416 265.568 272.228 265.914 272.889L281.118 302.001C281.374 302.493 281.943 302.736 282.475 302.583L332.207 288.244C332.826 288.065 333.184 287.419 333.005 286.8L324.437 257.186C324.263 256.578 323.631 256.222 323.02 256.383L266.651 271.225Z" fill="#CFD7E5"/>
<path fill-rule="evenodd" clip-rule="evenodd" d="M269.859 267.804C269.146 267.974 268.743 268.726 268.995 269.412L281.165 302.425C281.387 303.024 282.035 303.351 282.651 303.174L332.232 288.879C332.849 288.701 333.222 288.077 333.087 287.45L326.215 255.676C326.072 255.009 325.405 254.59 324.74 254.748L269.859 267.804Z" fill="white"/>
<path fill-rule="evenodd" clip-rule="evenodd" d="M274.178 264.472C273.308 264.603 272.735 265.447 272.933 266.302L281.2 301.94C281.395 302.782 282.258 303.287 283.089 303.047L331.919 288.97C332.704 288.743 333.166 287.934 332.962 287.144L325.454 258.055C325.26 257.305 324.53 256.824 323.764 256.94L274.178 264.472Z" fill="#A1A7C4"/>
<path fill-rule="evenodd" clip-rule="evenodd" d="M313.704 278.061C317.494 249.473 295.433 227.491 295.433 227.491C294.07 224.794 289.423 223.445 281.493 223.445C279.137 223.445 279.408 229.887 282.305 242.773C292.271 255.177 297.009 266.543 299.172 275.471C302.043 274.637 308.953 273.318 313.704 278.061Z" fill="#C5001A"/>
<path fill-rule="evenodd" clip-rule="evenodd" d="M299.172 276.282C298.805 276.282 298.472 276.033 298.383 275.662C295.715 264.657 290.092 253.762 281.672 243.28C281.39 242.931 281.447 242.42 281.796 242.138C282.147 241.86 282.659 241.915 282.939 242.263C291.511 252.933 297.238 264.042 299.963 275.279C300.069 275.716 299.8 276.154 299.364 276.26C299.3 276.276 299.236 276.282 299.172 276.282Z" fill="#9A0115"/>
<path fill-rule="evenodd" clip-rule="evenodd" d="M299.172 275.471C301.184 283.768 300.973 289.959 300.667 292.915C300.551 294.03 299.654 294.9 298.535 294.979C297.264 295.067 295.534 295.183 293.989 295.272C292.288 295.371 290.401 294.298 289.141 293.401C288.496 292.943 287.663 293.656 288.023 294.359C288.965 296.199 291.353 297.835 293.001 298.799C293.599 299.149 293.487 300.043 292.82 300.233L285.776 302.226C297.349 313.114 304.99 300.931 304.99 300.931C310.099 293.049 312.74 285.341 313.704 278.061C308.953 273.318 302.043 274.637 299.172 275.471Z" fill="#FFAF81"/>
<path fill-rule="evenodd" clip-rule="evenodd" d="M259.124 192.686C258.903 192.893 249.809 210.727 249.809 210.727L260.116 215.696L271.249 200.072C271.249 200.072 262.819 189.212 259.124 192.686Z" fill="#FFAF81"/>
<path fill-rule="evenodd" clip-rule="evenodd" d="M266.566 201.946L261.425 210.503C261.348 210.634 261.254 210.751 261.143 210.855C260.532 211.423 258.438 213.078 256.819 210.825C255.439 208.905 254.145 207.16 252.758 206.44C251.947 206.02 250.951 206.355 250.54 207.169C249.693 208.845 248.053 212.263 247.022 215.502C246.764 216.314 247.183 217.188 247.974 217.506C250.061 218.351 254.187 219.879 257.847 220.384C258.449 220.466 259.044 220.212 259.401 219.724C260.976 217.569 265.414 211.548 266.93 210.041C268.337 208.641 270.935 209.168 272.105 209.505C272.549 209.632 273.022 209.571 273.418 209.332C274.605 208.618 276.678 206.839 274.783 203.828C274.311 203.08 274.552 202.082 275.292 201.596C276.617 200.726 278.055 199.091 276.685 196.443C275.298 193.763 272.819 193.523 271.132 193.729C270.386 193.82 269.628 193.429 269.341 192.733C269.213 192.425 268.961 192.161 268.492 192.067C267.607 191.887 267.027 191.079 267.201 190.196C267.498 188.679 267.275 186.709 264.85 185.377C260.402 182.936 256.506 186.915 255.517 190.273C254.526 193.632 259.498 196.005 262.625 196.4C264.923 196.692 266.182 199.196 266.69 200.505C266.873 200.979 266.828 201.51 266.566 201.946Z" fill="#2D2D2F"/>
<path fill-rule="evenodd" clip-rule="evenodd" d="M264.999 213.184C264.999 213.184 266.976 207.406 269.508 207.617C272.039 207.83 274.031 210.348 270.894 213.179C266.991 216.7 264.999 213.184 264.999 213.184Z" fill="#FFAF81"/>
</g>
<defs>
<filter id="filter0_d" x="35.6001" y="-4.12671" width="407.616" height="440.392" filterUnits="userSpaceOnUse" color-interpolation-filters="sRGB">
<feFlood flood-opacity="0" result="BackgroundImageFix"/>
<feColorMatrix in="SourceAlpha" type="matrix" values="0 0 0 0 0 0 0 0 0 0 0 0 0 0 0 0 0 0 127 0"/>
<feOffset dx="4" dy="4"/>
<feGaussianBlur stdDeviation="10"/>
<feColorMatrix type="matrix" values="0 0 0 0 0 0 0 0 0 0 0 0 0 0 0 0 0 0 0.08 0"/>
<feBlend mode="normal" in2="BackgroundImageFix" result="effect1_dropShadow"/>
<feBlend mode="normal" in="SourceGraphic" in2="effect1_dropShadow" result="shape"/>
</filter>
<linearGradient id="paint0_linear" x1="374.98" y1="370.184" x2="368.631" y2="372.227" gradientUnits="userSpaceOnUse">
<stop stop-color="#075983"/>
<stop offset="1" stop-color="#1292B9"/>
</linearGradient>
<linearGradient id="paint1_linear" x1="177.875" y1="321.808" x2="267.139" y2="321.808" gradientUnits="userSpaceOnUse">
<stop stop-color="#2B3582"/>
<stop offset="1" stop-color="#140E42"/>
</linearGradient>
<linearGradient id="paint2_linear" x1="189.896" y1="227.666" x2="191.476" y2="229.696" gradientUnits="userSpaceOnUse">
<stop stop-color="#FF9652"/>
<stop offset="1" stop-color="#FFBE9D"/>
</linearGradient>
<linearGradient id="paint3_linear" x1="281.584" y1="393.716" x2="281.584" y2="451.621" gradientUnits="userSpaceOnUse">
<stop stop-color="#2B3582"/>
<stop offset="1" stop-color="#140E42"/>
</linearGradient>
<linearGradient id="paint4_linear" x1="287.971" y1="428.626" x2="289.763" y2="436.258" gradientUnits="userSpaceOnUse">
<stop stop-color="#FF9652"/>
<stop offset="1" stop-color="#FFBE9D"/>
</linearGradient>
<linearGradient id="paint5_linear" x1="347.359" y1="393.715" x2="347.359" y2="451.621" gradientUnits="userSpaceOnUse">
<stop stop-color="#2B3582"/>
<stop offset="1" stop-color="#140E42"/>
</linearGradient>
<linearGradient id="paint6_linear" x1="338.007" y1="421.364" x2="340.152" y2="430.192" gradientUnits="userSpaceOnUse">
<stop stop-color="#FF9652"/>
<stop offset="1" stop-color="#FFBE9D"/>
</linearGradient>
<linearGradient id="paint7_linear" x1="311.701" y1="340.106" x2="285.376" y2="346.673" gradientUnits="userSpaceOnUse">
<stop stop-color="#075983"/>
<stop offset="1" stop-color="#1292B9"/>
</linearGradient>
<clipPath id="clip0">
<rect width="450" height="450" fill="white"/>
</clipPath>
</defs>
</svg>
