<svg width="450" height="450" viewBox="0 0 450 450" fill="none" xmlns="http://www.w3.org/2000/svg">
<g clip-path="url(#clip0)">
<g opacity="0.2" filter="url(#filter0_d)">
<path fill-rule="evenodd" clip-rule="evenodd" d="M42.4458 185.109C45.007 139.794 28.2792 91.6846 67.6754 56.3228C108.868 19.3491 174.392 12.3623 235.111 12.1761C302.212 11.9703 380.853 11.8002 414.518 55.259C447.746 98.1533 397.48 150.884 382.052 201.863C361.787 268.821 388.669 353.576 312.892 391.055C231.354 431.384 114.931 415.326 50.1726 366.012C-6.3468 322.972 38.8428 248.858 42.4458 185.109Z" fill="#CFD7E5"/>
</g>
<g clip-path="url(#clip1)">
<path d="M171.277 200.082H216.69C217.754 200.082 218.774 200.507 219.526 201.261C220.278 202.016 220.7 203.039 220.7 204.106V230.662C220.7 231.729 220.278 232.752 219.526 233.506C218.774 234.261 217.754 234.685 216.69 234.686H200.402C198.356 237.548 194.655 242.671 194.328 242.671C194.023 242.671 194.611 237.832 195.025 234.686H171.277C170.213 234.685 169.192 234.261 168.44 233.506C167.688 232.751 167.266 231.727 167.267 230.66V204.104C167.267 201.884 169.062 200.083 171.277 200.082Z" fill="#CFD7E5"/>
<path d="M183.227 217.065C181.654 217.065 180.292 216.495 179.179 215.371C178.066 214.247 177.502 212.872 177.502 211.283C177.502 209.695 178.066 208.319 179.179 207.196C180.292 206.072 181.654 205.502 183.227 205.502C184.799 205.502 186.161 206.072 187.274 207.195C188.387 208.32 188.951 209.695 188.951 211.283C188.951 212.872 188.387 214.247 187.274 215.371C186.162 216.495 184.8 217.065 183.227 217.065ZM193.243 223.96C193.275 224.418 193.291 224.895 193.291 225.378C193.291 226.632 192.897 227.646 192.119 228.394C191.351 229.132 190.335 229.507 189.099 229.507H177.655C176.419 229.507 175.402 229.132 174.634 228.394C173.856 227.646 173.462 226.632 173.462 225.378C173.462 224.897 173.478 224.42 173.509 223.961C173.542 223.492 173.606 222.982 173.702 222.444C173.798 221.901 173.923 221.388 174.071 220.919C174.225 220.434 174.434 219.955 174.692 219.496C174.96 219.02 175.275 218.606 175.628 218.264C175.997 217.907 176.45 217.62 176.972 217.411C177.493 217.203 178.071 217.097 178.689 217.097C178.931 217.097 179.166 217.198 179.619 217.496C179.902 217.682 180.228 217.894 180.589 218.127C180.9 218.327 181.322 218.515 181.842 218.685C182.351 218.851 182.867 218.935 183.376 218.935C183.885 218.935 184.402 218.851 184.91 218.685C185.431 218.515 185.853 218.327 186.164 218.127C186.528 217.892 186.854 217.68 187.133 217.496C187.586 217.198 187.821 217.097 188.064 217.097C188.681 217.097 189.259 217.203 189.78 217.411C190.303 217.62 190.755 217.907 191.125 218.264C191.478 218.605 191.793 219.02 192.061 219.496C192.319 219.955 192.528 220.434 192.681 220.919C192.83 221.388 192.954 221.901 193.051 222.444C193.146 222.982 193.211 223.493 193.243 223.96ZM197.903 207.855H214.504V211.15H197.903V207.855ZM197.903 215.857H214.504V219.152H197.903V215.857ZM197.903 223.388H207.126V226.683H197.903V223.388Z" fill="white"/>
<path d="M269.389 206H341.741C343.437 206.001 345.062 206.673 346.26 207.868C347.459 209.063 348.131 210.683 348.13 212.372V254.423C348.131 256.111 347.459 257.731 346.26 258.926C345.062 260.121 343.437 260.793 341.741 260.794H291.116C287.856 265.325 281.96 273.438 281.439 273.438C280.953 273.438 281.89 265.776 282.55 260.794H269.389C267.693 260.793 266.067 260.121 264.868 258.925C263.67 257.73 262.998 256.109 263 254.42V212.369C263 208.854 265.859 206.003 269.389 206Z" fill="#CFD7E5"/>
<path d="M288.152 232.91C285.526 232.91 283.251 231.965 281.393 230.102C279.534 228.239 278.591 225.958 278.591 223.324C278.591 220.691 279.534 218.41 281.392 216.547C283.251 214.684 285.525 213.739 288.152 213.739C290.779 213.739 293.053 214.684 294.912 216.547C296.771 218.411 297.713 220.691 297.713 223.324C297.713 225.958 296.771 228.238 294.912 230.102C293.054 231.966 290.779 232.91 288.152 232.91ZM304.881 244.342C304.934 245.1 304.962 245.891 304.962 246.693C304.962 248.772 304.303 250.454 303.004 251.693C301.72 252.918 300.024 253.538 297.959 253.538H278.846C276.782 253.538 275.084 252.917 273.801 251.693C272.502 250.453 271.844 248.771 271.844 246.694C271.844 245.895 271.87 245.105 271.923 244.343C271.977 243.566 272.085 242.72 272.245 241.828C272.406 240.928 272.613 240.077 272.861 239.3C273.118 238.495 273.467 237.702 273.898 236.941C274.345 236.152 274.871 235.465 275.461 234.899C276.078 234.306 276.834 233.831 277.707 233.484C278.577 233.139 279.541 232.963 280.573 232.963C280.978 232.963 281.37 233.13 282.126 233.624C282.599 233.933 283.144 234.285 283.747 234.671C284.266 235.003 284.97 235.315 285.84 235.596C286.689 235.871 287.551 236.011 288.402 236.011C289.252 236.011 290.114 235.871 290.963 235.596C291.833 235.314 292.538 235.003 293.058 234.671C293.666 234.281 294.211 233.929 294.676 233.624C295.433 233.13 295.825 232.964 296.23 232.964C297.262 232.964 298.227 233.139 299.097 233.484C299.971 233.831 300.726 234.307 301.343 234.899C301.933 235.464 302.458 236.152 302.906 236.941C303.337 237.702 303.686 238.496 303.943 239.299C304.191 240.077 304.399 240.928 304.56 241.828C304.719 242.721 304.828 243.567 304.881 244.342ZM312.663 217.641H340.39V223.103H312.663V217.641ZM312.663 230.907H340.39V236.37H312.663V230.907ZM312.663 243.393H328.067V248.856H312.663V243.393Z" fill="white"/>
<path fill-rule="evenodd" clip-rule="evenodd" d="M352.509 364.615C351.871 364.615 351.81 364.133 351.756 363.706C351.748 363.64 351.74 363.578 351.731 363.517L351.591 362.672L351.586 362.643C351.227 360.474 350.857 358.239 350.571 356.027C350.556 355.217 349.948 354.54 349.142 354.437C347.453 353.978 345.815 353.444 344.082 352.88C343.288 352.621 342.467 352.354 341.63 352.09L334.636 358.584C331.351 356.52 328.442 353.913 326.035 350.873L331.581 343.339C331.22 342.552 330.857 341.777 330.508 341.029C329.614 339.112 328.769 337.301 327.996 335.443C327.836 334.819 327.24 334.408 326.599 334.479C325.083 334.452 323.542 334.389 322.052 334.327C321.014 334.285 319.94 334.24 318.883 334.208C318.353 334.193 317.936 334.128 317.803 333.477C317.072 330.262 316.838 326.955 317.109 323.669C317.189 322.901 317.538 322.705 318.16 322.61C319.338 322.429 320.533 322.234 321.689 322.047C323.107 321.816 324.57 321.578 326.012 321.363C326.58 321.355 327.064 320.951 327.172 320.395C327.896 318.162 328.746 315.845 329.768 313.311C330.004 312.878 329.892 312.339 329.504 312.034C328.056 310.482 326.642 308.956 325.148 307.34L325.13 307.321C324.54 306.684 323.949 306.045 323.356 305.402C325.41 302.168 327.963 299.28 330.922 296.844L338.799 302.604L347.406 298.421C347.424 297.954 347.443 297.473 347.461 296.981V296.976C347.533 295.098 347.615 292.969 347.721 290.88C347.734 290.588 347.739 290.343 347.744 290.127C347.771 288.864 347.771 288.864 349.349 288.619L349.751 288.557C349.969 288.501 350.182 288.426 350.387 288.332L356.38 288C356.82 288.093 357.268 288.145 357.718 288.155C357.813 288.149 357.904 288.146 357.99 288.146C358.979 288.146 359.417 288.582 359.553 289.702C359.855 292.262 360.324 294.842 360.778 297.341L360.79 297.405C360.896 297.795 361.169 298.118 361.536 298.289C362.356 298.601 363.2 298.891 364.018 299.172C365.305 299.614 366.63 300.071 367.888 300.618C368.183 300.763 368.505 300.846 368.834 300.859C369.337 300.82 369.803 300.578 370.125 300.188C371.524 298.833 372.963 297.527 374.485 296.144C375.165 295.528 375.868 294.89 376.584 294.232L385.201 301.796L384.846 302.299C384.625 302.612 384.465 302.839 384.298 303.067C383.926 303.571 383.556 304.076 383.186 304.581L383.179 304.59C382.053 306.125 380.887 307.713 379.711 309.253C379.311 309.708 379.282 310.38 379.641 310.867C380.219 312.026 380.768 313.224 381.295 314.383C381.763 315.406 382.245 316.465 382.748 317.492C382.985 317.875 383.38 318.134 383.827 318.199C385.108 318.285 386.415 318.329 387.679 318.37C388.491 318.396 389.33 318.424 390.156 318.463C391.858 318.552 392.494 318.586 392.891 319.261L393.464 329.845C393.232 330.345 392.705 330.418 391.429 330.594H391.41C389.129 330.915 386.771 331.241 384.462 331.645C384.036 331.775 383.689 332.086 383.515 332.496C383.157 333.481 382.822 334.493 382.497 335.472C382.113 336.629 381.717 337.824 381.283 338.983C380.972 339.499 381.077 340.163 381.533 340.557C383 342.067 384.464 343.628 385.877 345.135L385.883 345.142C386.468 345.767 387.074 346.413 387.669 347.044C386.425 349.494 381.967 354.537 379.976 355.745C379.275 355.226 378.555 354.701 377.857 354.187C376.261 353.017 374.612 351.81 373.017 350.573C372.746 350.312 372.391 350.155 372.016 350.128C371.67 350.152 371.337 350.268 371.051 350.462C369.119 351.546 367.128 352.522 365.088 353.386C364.327 353.719 363.789 354.035 363.789 355.072C363.778 356.586 363.712 358.124 363.649 359.614C363.603 360.682 363.555 361.787 363.529 362.875C363.512 363.632 363.237 363.958 362.577 364C359.289 364.196 355.93 364.401 352.594 364.607C352.565 364.614 352.536 364.615 352.509 364.615ZM355.293 309.132C354.981 309.132 354.666 309.141 354.355 309.157C345.051 309.641 337.83 317.441 338.076 326.74C338.322 336.038 345.946 343.447 355.262 343.44C355.572 343.44 355.887 343.432 356.197 343.415C365.5 342.931 372.721 335.131 372.476 325.833C372.231 316.535 364.608 309.126 355.293 309.132Z" fill="#A1A7C4"/>
<path d="M419.694 360.11C419.637 360.109 419.58 360.1 419.526 360.083L415.275 358.886C414.974 358.806 415.017 358.596 415.058 358.397C415.065 358.366 415.071 358.336 415.076 358.306C415.267 357.225 415.464 356.107 415.69 355.013C415.804 354.673 415.649 354.301 415.326 354.142C414.669 353.688 414.039 353.208 413.374 352.697C413.106 352.492 412.829 352.281 412.545 352.068L408.677 353.754C407.611 352.421 406.779 350.916 406.218 349.304L409.634 346.964C409.597 346.453 409.544 345.955 409.496 345.473C409.416 344.675 409.342 343.92 409.298 343.154C409.322 342.872 409.135 342.615 408.859 342.55C408.238 342.318 407.612 342.068 407.009 341.833C406.576 341.662 406.124 341.486 405.685 341.316C405.474 341.245 405.302 341.163 405.342 340.866C405.51 339.42 405.896 338.008 406.488 336.677C406.525 336.558 406.61 336.459 406.722 336.405C406.835 336.35 406.965 336.345 407.081 336.39C407.539 336.47 408.005 336.554 408.456 336.631C409.14 336.75 409.844 336.872 410.535 337.007C410.771 337.09 411.032 336.996 411.16 336.783C411.787 335.955 412.48 335.112 413.277 334.208C413.438 334.062 413.472 333.821 413.357 333.637C413.007 332.842 412.654 332.03 412.311 331.241L412.306 331.228C412.127 330.814 411.946 330.398 411.764 329.98C413.094 328.93 414.58 328.096 416.168 327.507L418.606 331.053L422.803 330.552C422.919 330.263 423.038 329.961 423.161 329.65V329.643C423.443 328.933 423.733 328.197 424.037 327.455C424.086 327.336 424.124 327.234 424.158 327.145C424.29 326.797 424.334 326.679 424.56 326.679C424.726 326.69 424.89 326.713 425.052 326.749L425.229 326.781C425.279 326.786 425.329 326.789 425.378 326.789C425.427 326.789 425.478 326.789 425.527 326.781L428.067 327.536C428.236 327.641 428.415 327.728 428.601 327.797C429.106 327.923 429.257 328.175 429.139 328.697C428.904 329.746 428.73 330.827 428.562 331.872L428.527 332.088C428.514 332.265 428.582 332.439 428.711 332.562C429.008 332.812 429.32 333.058 429.62 333.296C430.089 333.665 430.574 334.048 431.016 334.458C431.155 334.618 431.353 334.715 431.565 334.729C431.72 334.721 431.873 334.679 432.011 334.607C432.804 334.243 433.604 333.903 434.451 333.544C434.814 333.39 435.19 333.231 435.578 333.062C436.116 334.016 436.648 334.961 437.179 335.904L437.199 335.94L438.059 337.466L437.784 337.663C437.674 337.743 437.588 337.804 437.499 337.864L436.762 338.369C436.084 338.835 435.382 339.316 434.682 339.775C434.451 339.908 434.342 340.181 434.418 340.436C434.488 340.998 434.54 341.569 434.59 342.123C434.636 342.624 434.682 343.142 434.743 343.649C434.786 343.843 434.913 344.007 435.09 344.099C435.606 344.311 436.136 344.518 436.65 344.718C436.991 344.85 437.343 344.988 437.689 345.126C438.365 345.398 438.645 345.511 438.711 345.825L437.398 350.322C437.318 350.404 437.206 350.447 437.091 350.438C436.88 350.424 436.669 350.392 436.463 350.342L436.432 350.336L436.314 350.313C435.355 350.122 434.364 349.925 433.384 349.763H433.37C433.177 349.764 432.994 349.845 432.865 349.988C432.568 350.352 432.275 350.73 431.992 351.096C431.67 351.518 431.33 351.952 430.984 352.367C430.779 352.538 430.727 352.831 430.859 353.062C431.276 353.96 431.68 354.877 432.071 355.764V355.769C432.202 356.066 432.333 356.364 432.464 356.66C431.13 357.752 429.614 358.6 427.986 359.167C427.794 358.885 427.596 358.599 427.405 358.322C426.886 357.569 426.349 356.79 425.841 356.004C425.667 355.739 425.519 355.646 425.291 355.646C425.205 355.647 425.12 355.657 425.036 355.674C424.073 355.843 423.1 355.959 422.124 356.023C421.75 356.052 421.493 356.103 421.336 356.537C421.113 357.161 420.862 357.788 420.62 358.393C420.442 358.838 420.258 359.295 420.087 359.75C419.991 360.003 419.874 360.11 419.694 360.11ZM422.006 335.754C420.727 335.755 419.47 336.077 418.348 336.689C415.656 338.162 414.118 341.11 414.454 344.157C414.79 347.204 416.932 349.748 419.881 350.6C421.816 351.161 423.895 350.933 425.662 349.967C427.431 349.005 428.741 347.377 429.3 345.445C429.965 343.155 429.511 340.686 428.077 338.78C426.642 336.875 424.393 335.754 422.006 335.754Z" fill="#CFD7E5"/>
<path fill-rule="evenodd" clip-rule="evenodd" d="M394.267 419.137C393.996 419.14 393.726 419.124 393.457 419.09C393.32 418.537 393.176 417.972 393.037 417.426C392.659 415.933 392.267 414.39 391.925 412.852C391.779 412.193 391.548 411.98 390.85 411.864C389.233 411.571 387.633 411.191 386.058 410.723C385.843 410.654 385.621 410.614 385.396 410.604C385.042 410.612 384.713 410.787 384.511 411.076C383.787 411.94 383.014 412.792 382.268 413.615C381.736 414.203 381.187 414.81 380.659 415.418C380.518 415.629 380.291 415.766 380.038 415.793C379.871 415.784 379.71 415.721 379.581 415.614L373.58 411.254C373.15 410.942 373.343 410.638 373.529 410.345C373.556 410.303 373.581 410.264 373.606 410.222L374.075 409.419L374.08 409.41C374.857 408.078 375.661 406.702 376.498 405.389C376.879 404.924 376.852 404.249 376.435 403.816C375.669 402.724 374.962 401.61 374.213 400.43C373.905 399.944 373.586 399.441 373.259 398.934L366.172 399.35C365.27 396.62 364.842 393.755 364.909 390.88L371.659 389.186C371.82 388.582 371.981 387.985 372.128 387.409C372.53 385.873 372.91 384.422 373.354 382.978C373.558 382.546 373.413 382.03 373.013 381.768C372.191 381.06 371.368 380.322 370.572 379.615C369.967 379.074 369.344 378.518 368.722 377.977C368.428 377.719 368.22 377.487 368.451 377.048C369.559 374.862 370.994 372.858 372.709 371.105C372.854 370.933 373.062 370.827 373.287 370.81C373.476 370.823 373.659 370.886 373.815 370.994C374.595 371.459 375.392 371.923 376.163 372.373C377.062 372.898 377.991 373.439 378.898 373.98C379.062 374.099 379.258 374.169 379.461 374.182C379.664 374.171 379.86 374.1 380.024 373.98C381.397 373.107 382.937 372.208 384.87 371.15C385.207 371.011 385.397 370.652 385.322 370.295C385.225 368.661 385.138 367.062 385.047 365.37V365.369C385.016 364.786 384.984 364.199 384.952 363.61C387.587 362.755 390.337 362.306 393.107 362.28H393.349L393.86 364.312C394.288 365.998 394.71 367.672 395.12 369.291L402.029 370.954C402.359 370.587 402.704 370.204 403.058 369.808C403.942 368.825 404.85 367.809 405.792 366.787C405.94 366.627 406.06 366.49 406.166 366.369C406.482 366.006 406.64 365.825 406.857 365.825C407.2 365.901 407.522 366.051 407.8 366.265L408.06 366.419C408.211 366.491 408.369 366.548 408.531 366.59L412.104 369.229C412.312 369.49 412.544 369.732 412.796 369.952C413.116 370.102 413.343 370.398 413.405 370.745C413.468 371.092 413.358 371.449 413.112 371.701C412.114 373.234 411.196 374.86 410.309 376.432L410.163 376.69C410.038 376.963 410.038 377.277 410.163 377.55C410.484 378.112 410.823 378.667 411.155 379.207C411.683 380.069 412.23 380.96 412.689 381.876C412.857 382.397 413.36 382.737 413.907 382.699C413.988 382.699 414.075 382.699 414.173 382.688C415.644 382.574 417.112 382.504 418.666 382.431C419.323 382.399 420.001 382.367 420.694 382.331C420.844 383.272 420.992 384.207 421.139 385.134C421.43 386.96 421.729 388.849 422.031 390.719L421.525 390.857C421.283 390.922 421.093 390.975 420.903 391.017L419.554 391.359C418.176 391.708 416.751 392.069 415.344 392.396C414.806 392.531 414.655 392.798 414.539 393.296C414.322 394.222 414.069 395.157 413.824 396.061C413.604 396.876 413.375 397.718 413.174 398.551C413.128 398.883 413.232 399.219 413.459 399.466C414.156 400.123 414.888 400.766 415.594 401.389C416.042 401.783 416.505 402.192 416.956 402.598L416.982 402.622C417.897 403.459 418.24 403.772 418.17 404.3L413.471 410.624C413.389 410.665 413.298 410.686 413.207 410.687C412.752 410.592 412.326 410.391 411.964 410.101L411.94 410.086L411.919 410.073C410.471 409.183 408.97 408.263 407.466 407.411C407.159 407.286 406.812 407.301 406.518 407.453C405.838 407.855 405.159 408.277 404.502 408.689C403.741 409.166 402.954 409.659 402.161 410.113C401.707 410.376 401.512 410.586 401.557 411.134C401.692 412.81 401.794 414.508 401.892 416.153C401.924 416.683 401.956 417.212 401.988 417.74C399.498 418.587 396.896 419.058 394.267 419.137ZM393.302 377.894C389.252 377.9 385.443 379.812 383.021 383.052C380.155 386.918 379.715 392.065 381.884 396.36C384.052 400.654 388.459 403.362 393.275 403.36C397.322 403.354 401.13 401.444 403.551 398.206H403.562C406.425 394.339 406.864 389.191 404.695 384.897C402.527 380.603 398.121 377.895 393.304 377.895L393.302 377.894Z" fill="#E1E7F1"/>
<path d="M79.2158 168.333H19.9031C16.6028 168.339 13.9324 171.026 13.938 174.333V213.924C13.9321 217.232 16.6026 219.919 19.9031 219.925H58.9257C61.9663 224.192 67.473 231.83 67.9625 231.83C68.452 231.83 67.541 224.615 66.9232 219.925H79.2162C80.8015 219.923 82.3209 219.289 83.4397 218.164C84.5585 217.038 85.1851 215.513 85.1814 213.924V174.333C85.187 171.025 82.5163 168.339 79.2158 168.333Z" fill="#CFD7E5"/>
<path d="M24.9401 208.6C24.8512 208.6 24.7788 208.451 24.7788 208.267V204.618C24.7788 204.434 24.8512 204.286 24.9401 204.286H73.4038C73.4927 204.286 73.5651 204.434 73.5651 204.618V208.267C73.5651 208.451 73.4927 208.6 73.4038 208.6H24.9401ZM51.5061 195.657C51.4175 195.657 51.3456 195.508 51.3456 195.324V191.676C51.3456 191.587 51.3625 191.503 51.3926 191.44C51.4227 191.378 51.4635 191.343 51.5061 191.343H73.4046C73.4933 191.343 73.5651 191.492 73.5651 191.676V195.324C73.5651 195.508 73.4933 195.657 73.4046 195.657H51.5061ZM24.9408 195.657C24.8513 195.657 24.7788 195.508 24.7788 195.324V191.676C24.7788 191.492 24.8513 191.343 24.9408 191.343H46.8364C46.9258 191.343 46.9983 191.492 46.9983 191.676V195.324C46.9983 195.508 46.9258 195.657 46.8364 195.657H24.9408ZM47.6408 182.714C47.5527 182.714 47.4813 182.565 47.4813 182.381V178.733C47.4813 178.549 47.5527 178.4 47.6408 178.4H73.4052C73.4935 178.4 73.5651 178.549 73.5651 178.733V182.381C73.5651 182.565 73.4935 182.714 73.4052 182.714H47.6408ZM24.9387 182.714C24.8504 182.714 24.7788 182.565 24.7788 182.381V178.733C24.7788 178.549 24.8504 178.4 24.9387 178.4H41.5254C41.5678 178.4 41.6084 178.435 41.6384 178.497C41.6683 178.56 41.685 178.645 41.685 178.733V182.381C41.685 182.469 41.6683 182.554 41.6384 182.617C41.6084 182.679 41.5678 182.714 41.5254 182.714H24.9387Z" fill="white"/>
<path fill-rule="evenodd" clip-rule="evenodd" d="M225 429C349.264 429 450 433.702 450 439.5C450 445.299 349.264 450 225 450C100.735 450 0 445.299 0 439.5C0 433.702 100.735 429 225 429Z" fill="#E1E7F1" fill-opacity="0.3"/>
<path fill-rule="evenodd" clip-rule="evenodd" d="M164.37 305.927C151.708 304.471 131.058 301.994 130.384 301.248L111.166 275.111C114.812 271.565 116.825 266.06 120.445 262.476C127.261 272.062 133.479 282.059 139.065 292.411L173.416 301.026L173.416 301.029C176.518 300.337 181.462 299.733 182.123 299.943C182.907 300.193 187.561 302.253 188.324 303.063C189.012 303.793 189.93 304.768 189.556 305.333C189.556 305.333 191.077 307.351 190.557 307.622C190.036 307.893 186.958 306.68 185.896 306.171C184.834 305.663 183.263 305.425 182.479 305.7C181.694 305.976 178.315 307.864 176.478 307.895C175.908 307.914 170.256 307.403 164.132 307.424L164.37 305.927Z" fill="#FFAF81"/>
<path fill-rule="evenodd" clip-rule="evenodd" d="M120.046 291.664C120.046 291.664 117.372 288.096 114.299 283.793C113.409 282.546 114.025 274.961 114.299 268.188C114.5 263.218 115.611 254.979 120.046 259.438C127.321 266.768 134.614 282.648 134.614 282.648L120.046 291.664Z" fill="#C5001A"/>
<path fill-rule="evenodd" clip-rule="evenodd" d="M137.072 424.635C137.072 424.635 136.547 433.309 136.545 433.328C136.351 434.428 135.603 437.15 135.603 438.15C135.603 441.918 153.463 434.957 149.462 433.29C149.099 433.14 147.201 431.998 147.081 430.719C146.897 428.746 146.431 424.757 146.431 424.757L137.072 424.635Z" fill="#FFAF81"/>
<path fill-rule="evenodd" clip-rule="evenodd" d="M148.704 432.549C148.704 432.549 144.509 433.7 142.362 433.988C140.214 434.275 137.383 431.852 135.864 432.507C134.192 433.227 134.256 439.707 134.256 439.707C134.256 439.707 156.744 441.553 163.069 439.644C165.57 438.888 157.274 435.229 148.704 432.549Z" fill="#444444"/>
<path fill-rule="evenodd" clip-rule="evenodd" d="M167.394 424.635C167.394 424.635 166.869 433.309 166.866 433.328C166.673 434.428 165.924 437.15 165.924 438.15C165.924 441.918 183.787 434.958 179.784 433.29C179.421 433.14 176.722 432.662 176.597 431.381C176.414 429.41 176.072 423.309 176.072 423.309L167.394 424.635Z" fill="#FFAF81"/>
<path fill-rule="evenodd" clip-rule="evenodd" d="M179.022 432.549C179.022 432.549 174.828 433.7 172.68 433.988C170.532 434.275 167.702 431.852 166.183 432.507C164.511 433.227 164.577 439.707 164.577 439.707C164.577 439.707 187.065 441.553 193.388 439.644C195.894 438.888 187.594 435.229 179.022 432.549Z" fill="#444444"/>
<path fill-rule="evenodd" clip-rule="evenodd" d="M109.845 331.588L152.54 331.771C152.54 331.771 171.829 331.267 174.879 337.936C177.928 344.604 177.201 429.297 177.201 429.297C177.201 429.297 166.907 430.828 166.379 430.262L154.787 379.557C153.549 375.259 153.127 370.767 153.544 366.314L154.651 354.522L137.032 355.422C137.032 355.422 117.058 355.104 110.474 348.48C103.889 341.856 109.845 331.588 109.845 331.588Z" fill="#444444"/>
<path fill-rule="evenodd" clip-rule="evenodd" d="M80.9092 326.881L126.82 329.706C126.82 329.706 146.577 331.31 149.626 337.978C152.676 344.647 147.679 430.065 147.679 430.065C147.679 430.065 136.219 430.771 136.242 430.27C136.271 429.672 131.532 391.142 128.913 378.938C128.082 375.066 127.79 371.097 128.047 367.146L129.695 353.472C129.695 353.472 87.0513 353.236 84.934 351.101C78.3586 344.47 80.9092 326.881 80.9092 326.881Z" fill="#444444"/>
<path fill-rule="evenodd" clip-rule="evenodd" d="M121.22 262.476C119.093 251.944 104.306 253.514 104.306 253.514C104.306 253.514 96.8024 252.294 94.3626 252.824C90.7734 253.601 84.0354 253.956 83.4066 269.542C82.9591 280.689 81.6897 308.267 80.418 326.89C106.225 331.246 121.455 332.171 126.107 329.664C133.085 325.903 123.347 273.008 121.22 262.476Z" fill="#9A0115"/>
<path fill-rule="evenodd" clip-rule="evenodd" d="M104.848 240.173C104.067 244.646 101.882 248.854 98.2905 252.795C98.2905 252.795 102.667 259.005 107.723 259.179C111.965 259.326 112.295 255.731 112.295 255.731C112.295 255.731 112.125 252.154 114.162 249.658C116.199 247.162 106.019 233.463 104.848 240.173Z" fill="#FFAF81"/>
<path fill-rule="evenodd" clip-rule="evenodd" d="M105.472 242.929C105.713 233.434 103.909 227.02 113.652 226.714C123.392 226.408 125.751 228.781 126.442 231.97C126.651 232.939 126.818 236.603 125.827 239.584C127.67 243.078 121.363 254.317 119.247 254.607C117.131 254.898 105.231 252.424 105.472 242.929Z" fill="#FFAF81"/>
<path fill-rule="evenodd" clip-rule="evenodd" d="M109.863 237.431C111.194 242.288 112.258 245.199 113.057 246.166C113.855 247.133 115.505 246.474 118.006 244.19L122.839 245.042C123.472 246.552 123.535 248.135 123.029 249.791C122.522 251.447 121.375 253.425 119.587 255.726C117.331 256.864 114.982 256.981 112.539 256.076C108.875 254.719 107.341 252.398 105.112 248.638C104.129 246.979 104.024 243.391 104.65 242.3C105.443 240.916 107.12 241.111 107.304 240.065C108.403 241.751 109.256 240.872 109.863 237.431Z" fill="#2D2D2F"/>
<path fill-rule="evenodd" clip-rule="evenodd" d="M116.702 247.305C118.074 248.678 119.707 248.966 121.466 248.145C121.765 248.005 121.894 247.65 121.754 247.351C121.615 247.052 121.26 246.923 120.961 247.063C119.657 247.671 118.564 247.478 117.546 246.461C117.313 246.227 116.935 246.227 116.702 246.46C116.469 246.694 116.469 247.072 116.702 247.305Z" fill="url(#paint0_linear)"/>
<path fill-rule="evenodd" clip-rule="evenodd" d="M125.88 233.268C125.88 233.268 129.382 234.374 128.619 230.231C130.681 229.071 131.572 225.942 128.542 225.945C129.264 224.15 127.881 222.37 125.987 223.776C126.517 220.454 123.554 220.111 122.041 221.229C122.401 219.186 119.511 216.806 116.098 219.054C114.967 216.738 111.581 216.183 110.846 218.839C108.316 216.231 104.649 217.759 104.494 220.855C104.494 220.855 100.193 221.219 101.436 226.203C100 226.465 99.2387 230.481 101.35 230.853C99.5302 231.684 99.3873 235.051 101.299 235.031C99.635 236.417 99.7682 238.055 101.293 239.005C99.7046 240.186 100.622 243.27 102.273 242.76C101.659 244.604 106.526 245.298 105.903 242.176C106.911 241.203 107.652 240.761 107.566 240.111C105.762 238.896 106.239 234.641 108.005 234.953C109.767 235.263 109.446 238.628 110.351 237.709C111.252 236.789 113.404 233.344 112.34 230.139C112.915 230.829 114.021 231.689 115.251 231.394C115.895 233.172 118.761 233.58 119.775 232.883C122.268 233.475 124.669 233.693 125.88 233.268Z" fill="#2D2D2F"/>
<path fill-rule="evenodd" clip-rule="evenodd" d="M154.84 307.001L154.832 307.023C154.832 307.023 115.658 304.25 114.85 303.176L91.5342 279.982C95.1728 277.008 96.7272 269.09 100.354 266.09C110.509 280.142 121.314 292.354 121.314 292.354L156.122 301.56L156.151 301.476C156.874 301.678 157.809 301.916 158.429 302.088C158.429 302.088 159.978 302.521 162.432 301.9C164.886 301.278 171.217 300.824 171.933 301.099C172.649 301.374 176.822 303.529 177.481 304.318C178.077 305.029 178.869 305.98 178.492 306.482C178.492 306.482 179.794 308.443 179.3 308.665C178.805 308.886 176.028 307.596 175.082 307.07C174.135 306.545 172.689 306.237 171.954 306.449C171.219 306.661 167.995 308.217 166.302 308.144C165.783 308.11 160.296 307.34 154.84 307.001Z" fill="#FFAF81"/>
<path fill-rule="evenodd" clip-rule="evenodd" d="M99.5922 291.883C99.5922 291.883 87.5816 276.637 84.6637 270.649C81.7459 264.661 84.8639 255.186 90.6808 254.065C96.4977 252.944 113.338 280.293 113.338 280.293L99.5922 291.883Z" fill="#C5001A"/>
<path fill-rule="evenodd" clip-rule="evenodd" d="M94.0768 434.901C94.0768 434.123 94.386 433.377 94.9364 432.828C95.4868 432.278 96.2332 431.969 97.0113 431.97H102.487C103.265 431.969 104.011 432.278 104.561 432.828C105.111 433.378 105.42 434.124 105.419 434.901H121.577C123.636 434.901 125.306 436.57 125.306 438.629C125.306 438.989 125.013 439.281 124.653 439.281H73.797C73.4376 439.28 73.147 438.988 73.147 438.629C73.147 436.571 74.8147 434.903 76.8728 434.901H94.0768ZM97.3622 366.187H101.86V431.967H97.3622V366.187Z" fill="#A1A7C4"/>
<path fill-rule="evenodd" clip-rule="evenodd" d="M128.571 358.614L125.495 345.805C123.31 336.822 115.449 330.365 106.212 329.965L67.2557 328.39L66.0522 324.424L106.369 326.054C117.354 326.531 126.702 334.209 129.301 344.891L132.57 358.494C131.463 358.551 130.113 358.586 128.571 358.614Z" fill="#A1A7C4"/>
<path fill-rule="evenodd" clip-rule="evenodd" d="M76.3194 351.798C76.3194 351.798 129.842 352.714 135.433 351.798C141.024 350.882 143.428 357.875 141.763 361.539C140.098 365.203 135.517 366.618 128.77 366.955C122.023 367.291 65.8886 368.869 64.3083 367.371C63.0177 366.147 45.9997 307.979 39.8152 286.71C38.5796 282.46 41.0189 278.012 45.2673 276.768C49.4933 275.533 53.9264 277.929 55.2059 282.142L76.3194 351.798Z" fill="#E1E7F1"/>
<path fill-rule="evenodd" clip-rule="evenodd" d="M245.37 271.423H200.719C199.537 271.422 198.472 272.137 198.025 273.232L184.266 306.757H159.66C159.329 306.757 159.012 306.888 158.778 307.121C158.544 307.355 158.412 307.672 158.412 308.003C158.412 308.333 158.545 308.65 158.779 308.883C159.013 309.116 159.33 309.247 159.66 309.246H229.72C231.651 309.251 233.404 308.12 234.195 306.359L248.038 275.527C248.443 274.624 248.362 273.578 247.822 272.748C247.283 271.919 246.359 271.42 245.37 271.423Z" fill="#E1E7F1"/>
<path d="M221.328 290.941C221.026 292.448 219.714 293.453 218.393 293.192C217.072 292.931 216.25 291.492 216.552 289.987C216.853 288.483 218.167 287.475 219.486 287.739C220.805 288.002 221.631 289.441 221.328 290.941Z" fill="#CFD7E5"/>
<path fill-rule="evenodd" clip-rule="evenodd" d="M200.444 309.651H303.341C304.561 309.651 305.557 310.648 305.557 311.865V314.729C305.557 315.948 304.561 316.945 303.341 316.945H284.069L302.746 439.404C302.997 440.543 302.273 441.683 301.135 441.934C300 442.187 298.864 441.459 298.613 440.32L279.734 316.945H263.211L244.332 440.32C244.081 441.459 242.945 442.187 241.808 441.934C240.672 441.683 239.948 440.543 240.2 439.404L258.876 316.945H210.442H177.618L196.295 439.404C196.546 440.543 195.822 441.683 194.685 441.934C193.549 442.187 192.413 441.459 192.162 440.32L173.284 316.945H156.76L137.881 440.32C137.63 441.459 136.495 442.187 135.357 441.934C134.221 441.683 133.498 440.543 133.749 439.404L152.425 316.945H131.675C130.457 316.945 129.46 315.948 129.46 314.729V311.865C129.46 310.648 130.457 309.651 131.675 309.651H200.444Z" fill="#A1A7C4"/>
</g>
<path d="M106.434 118H190.62C192.593 118.001 194.484 118.786 195.879 120.182C197.273 121.578 198.055 123.471 198.054 125.444V174.57C198.055 176.543 197.273 178.436 195.879 179.832C194.484 181.228 192.593 182.013 190.62 182.014H131.714C127.922 187.308 121.061 196.786 120.454 196.786C119.889 196.786 120.979 187.834 121.747 182.014H106.434C104.46 182.013 102.568 181.227 101.174 179.831C99.7798 178.434 98.9977 176.54 99 174.567V125.44C99 121.334 102.327 118.003 106.434 118Z" fill="#CFD7E5"/>
<path d="M127.593 148.653C124.654 148.653 122.109 147.61 120.028 145.552C117.948 143.494 116.893 140.976 116.893 138.067C116.893 135.158 117.948 132.64 120.028 130.582C122.108 128.523 124.653 127.48 127.593 127.48C130.532 127.48 133.077 128.523 135.158 130.581C137.238 132.64 138.292 135.158 138.292 138.067C138.292 140.976 137.238 143.494 135.158 145.552C133.078 147.61 130.533 148.653 127.593 148.653ZM146.314 161.279C146.373 162.116 146.404 162.99 146.404 163.876C146.404 166.171 145.667 168.029 144.213 169.398C142.777 170.75 140.878 171.435 138.568 171.435H117.178C114.868 171.435 112.969 170.75 111.533 169.398C110.079 168.028 109.342 166.17 109.342 163.876C109.342 162.994 109.372 162.121 109.431 161.28C109.491 160.422 109.612 159.487 109.791 158.502C109.971 157.508 110.203 156.569 110.481 155.71C110.768 154.822 111.159 153.945 111.641 153.105C112.141 152.234 112.73 151.475 113.39 150.85C114.081 150.195 114.927 149.67 115.903 149.287C116.877 148.906 117.956 148.712 119.111 148.712C119.565 148.712 120.004 148.896 120.849 149.442C121.378 149.783 121.989 150.172 122.663 150.598C123.244 150.965 124.032 151.309 125.005 151.62C125.956 151.924 126.92 152.078 127.872 152.078C128.824 152.078 129.789 151.924 130.739 151.62C131.712 151.308 132.501 150.965 133.083 150.598C133.763 150.168 134.373 149.779 134.894 149.442C135.741 148.897 136.18 148.712 136.633 148.712C137.788 148.712 138.867 148.906 139.841 149.287C140.819 149.67 141.664 150.196 142.354 150.849C143.014 151.474 143.603 152.233 144.104 153.105C144.586 153.945 144.977 154.822 145.264 155.71C145.542 156.568 145.774 157.508 145.954 158.502C146.133 159.489 146.254 160.423 146.314 161.279ZM155.023 131.79H186.051V137.823H155.023V131.79ZM155.023 146.441H186.051V152.474H155.023V146.441ZM155.023 160.231H172.261V166.264H155.023V160.231Z" fill="white"/>
<path d="M262.357 82H357.003C359.221 82.0015 361.348 82.8841 362.915 84.4536C364.482 86.023 365.362 88.1508 365.36 90.3688V145.599C365.362 147.817 364.482 149.944 362.915 151.514C361.348 153.083 359.221 153.966 357.003 153.967H290.779C286.515 159.919 278.802 170.574 278.12 170.574C277.484 170.574 278.71 160.511 279.573 153.967H262.357C260.139 153.966 258.012 153.083 256.444 151.513C254.877 149.942 253.997 147.813 254 145.595V90.3649C254 85.7477 257.74 82.0032 262.357 82Z" fill="#CFD7E5"/>
<path d="M286.145 115.493C282.841 115.493 279.979 114.32 277.641 112.007C275.302 109.693 274.116 106.862 274.116 103.591C274.116 100.321 275.302 97.4898 277.64 95.1761C279.979 92.8623 282.84 91.6895 286.145 91.6895C289.45 91.6895 292.311 92.8623 294.65 95.1757C296.988 97.4902 298.174 100.322 298.174 103.591C298.174 106.862 296.988 109.693 294.65 112.006C292.312 114.32 289.45 115.493 286.145 115.493ZM307.192 129.688C307.259 130.629 307.293 131.611 307.293 132.607C307.293 135.187 306.465 137.276 304.83 138.815C303.216 140.335 301.081 141.106 298.484 141.106H274.437C271.84 141.106 269.704 140.335 268.09 138.815C266.456 137.275 265.627 135.187 265.627 132.607C265.627 131.616 265.66 130.635 265.727 129.689C265.794 128.724 265.931 127.673 266.131 126.565C266.334 125.448 266.595 124.392 266.907 123.426C267.23 122.428 267.669 121.443 268.211 120.498C268.774 119.518 269.436 118.665 270.177 117.962C270.954 117.227 271.905 116.636 273.003 116.206C274.098 115.777 275.311 115.559 276.61 115.559C277.119 115.559 277.613 115.766 278.564 116.38C279.159 116.763 279.844 117.2 280.602 117.68C281.256 118.092 282.142 118.478 283.236 118.828C284.305 119.17 285.389 119.343 286.459 119.343C287.529 119.343 288.614 119.17 289.682 118.828C290.776 118.478 291.663 118.092 292.317 117.679C293.082 117.196 293.767 116.758 294.353 116.38C295.306 115.767 295.799 115.56 296.308 115.56C297.607 115.56 298.82 115.777 299.915 116.205C301.014 116.636 301.964 117.227 302.74 117.962C303.483 118.664 304.144 119.518 304.707 120.498C305.25 121.443 305.689 122.428 306.011 123.426C306.324 124.392 306.585 125.448 306.788 126.565C306.988 127.675 307.125 128.725 307.192 129.688ZM316.983 96.5342H351.866V103.317H316.983V96.5342ZM316.983 113.006H351.866V119.789H316.983V113.006ZM316.983 128.509H336.363V135.292H316.983V128.509Z" fill="white"/>
</g>
<defs>
<filter id="filter0_d" x="5.93799" y="-3.85156" width="443.712" height="441.735" filterUnits="userSpaceOnUse" color-interpolation-filters="sRGB">
<feFlood flood-opacity="0" result="BackgroundImageFix"/>
<feColorMatrix in="SourceAlpha" type="matrix" values="0 0 0 0 0 0 0 0 0 0 0 0 0 0 0 0 0 0 127 0"/>
<feOffset dx="4" dy="4"/>
<feGaussianBlur stdDeviation="10"/>
<feColorMatrix type="matrix" values="0 0 0 0 0 0 0 0 0 0 0 0 0 0 0 0 0 0 0.08 0"/>
<feBlend mode="normal" in2="BackgroundImageFix" result="effect1_dropShadow"/>
<feBlend mode="normal" in="SourceGraphic" in2="effect1_dropShadow" result="shape"/>
</filter>
<linearGradient id="paint0_linear" x1="117.926" y1="247.3" x2="118.36" y2="248.099" gradientUnits="userSpaceOnUse">
<stop stop-color="#FF9652"/>
<stop offset="1" stop-color="#FFBE9D"/>
</linearGradient>
<clipPath id="clip0">
<rect width="450" height="450" fill="white"/>
</clipPath>
<clipPath id="clip1">
<rect width="528" height="441.189" fill="white" transform="translate(0 118)"/>
</clipPath>
</defs>
</svg>
