<svg width="450" height="450" viewBox="0 0 450 450" fill="none" xmlns="http://www.w3.org/2000/svg">
<g clip-path="url(#clip0)">
<path fill-rule="evenodd" clip-rule="evenodd" d="M229.444 425C356.162 425 458.888 431.259 458.888 438.978C458.888 446.698 356.162 452.955 229.444 452.955C102.725 452.955 0 446.698 0 438.978C0 431.259 102.725 425 229.444 425Z" fill="#E1E7F1" fill-opacity="0.3"/>
<g opacity="0.2" filter="url(#filter0_d)">
<path fill-rule="evenodd" clip-rule="evenodd" d="M38.5335 197.111C41.2348 149.317 23.592 98.5754 65.1433 61.2792C108.59 22.2828 177.698 14.9137 241.739 14.7174C312.511 14.5003 395.454 14.3209 430.96 60.1571C466.006 105.398 412.99 161.014 396.718 214.782C375.345 285.402 403.697 374.793 323.774 414.323C237.776 456.858 114.984 439.922 46.683 387.91C-12.9283 342.516 34.7335 264.347 38.5335 197.111Z" fill="#CFD7E5"/>
</g>
<path fill-rule="evenodd" clip-rule="evenodd" d="M207.69 404.727H215.236V396.047H199.778L207.69 404.727Z" fill="#F3F2EF"/>
<path fill-rule="evenodd" clip-rule="evenodd" d="M242.119 431.729H223.789L207.135 379.312C203.912 369.171 194.606 362.362 183.968 362.362H171.091C160.464 362.362 151.148 369.171 147.936 379.312L131.271 431.729H112.952L129.925 378.312C133.577 366.795 144.148 359.062 156.226 359.062H198.833C210.912 359.062 221.482 366.795 225.145 378.312L242.119 431.729Z" fill="#426AA5"/>
<path d="M242.119 431.729L229.652 392.494L242.119 431.729ZM238.654 431.729H223.789L215.993 407.194L220.667 392.494H226.188L238.654 431.729ZM127.817 431.729H112.952L114.703 426.216L116.953 424.308L116.956 424.312L120.693 421.14L122.923 424.532C122.923 424.532 126.714 421.798 132.259 417.748L127.817 431.729ZM121.682 404.253L125.419 392.494H134.166C129.382 396.783 125.056 400.927 121.682 404.253ZM143.778 381.494H128.914L129.925 378.312C133.577 366.795 144.148 359.062 156.226 359.062H161.756C159.372 360.222 157.152 361.974 155.093 364.142C150.333 367.524 146.657 372.423 144.79 378.312L143.778 381.494Z" fill="url(#paint0_linear)"/>
<path d="M242.119 431.729L229.652 392.494L242.119 431.729ZM238.654 431.729H223.789L215.993 407.194L220.667 392.494H226.188L238.654 431.729ZM127.817 431.729H112.952L114.703 426.216L116.953 424.308L116.956 424.312L120.693 421.14L122.923 424.532C122.923 424.532 126.714 421.798 132.259 417.748L127.817 431.729ZM121.682 404.253L125.419 392.494H134.166C129.382 396.783 125.056 400.927 121.682 404.253ZM143.778 381.494H128.914L129.925 378.312C133.577 366.795 144.148 359.062 156.226 359.062H161.756C159.372 360.222 157.152 361.974 155.093 364.142C150.333 367.524 146.657 372.423 144.79 378.312L143.778 381.494Z" fill="#A1A7C4"/>
<path fill-rule="evenodd" clip-rule="evenodd" d="M242.119 431.729H238.654L222 379.312C218.776 369.171 209.47 362.362 198.833 362.362H171.091C160.464 362.362 151.148 369.171 147.935 379.312L131.271 431.729H127.816L144.789 378.312C148.441 366.795 159.012 359.062 171.091 359.062H198.833C210.911 359.062 221.482 366.795 225.145 378.312L242.119 431.729Z" fill="#A1A7C4"/>
<path fill-rule="evenodd" clip-rule="evenodd" d="M324.247 287.596C323.236 286.015 321.49 285.06 319.614 285.06H245.657C243.512 285.06 241.563 286.306 240.664 288.253L197.649 381.494H118.452C115.414 381.494 112.952 383.956 112.952 386.994C112.952 390.031 115.414 392.494 118.452 392.494H275.125C277.271 392.494 279.219 391.246 280.118 389.3L324.607 292.866C325.394 291.162 325.259 289.176 324.247 287.596Z" fill="#E1E7F1"/>
<path fill-rule="evenodd" clip-rule="evenodd" d="M275.125 392.494H220.667L223.509 383.556C231.123 383.332 237.835 382.839 243.435 381.494H271.605L277.442 368.841C280.437 371.628 282.749 375.195 284.057 379.313L284.33 380.171L280.119 389.298C279.23 391.225 277.311 392.468 275.191 392.493C275.17 392.493 275.148 392.494 275.125 392.494Z" fill="#A1A7C4"/>
<path fill-rule="evenodd" clip-rule="evenodd" d="M202.341 392.494H192.408C189.371 392.494 186.908 390.031 186.908 386.994C186.908 386.097 187.123 385.25 187.504 384.502C193.623 384.122 199.504 383.956 205.084 383.859L202.341 392.494Z" fill="#A1A7C4"/>
<path fill-rule="evenodd" clip-rule="evenodd" d="M305.017 335.33L324.607 292.866C324.946 292.134 325.113 291.35 325.114 290.568C325.115 290.064 325.046 289.561 324.91 289.073C325.252 290.289 325.178 291.627 324.609 292.863L305.017 335.33ZM324.656 288.361C324.542 288.098 324.405 287.842 324.247 287.596C323.236 286.015 321.49 285.06 319.614 285.06H319.476C319.523 285.058 319.57 285.058 319.618 285.058C320.389 285.058 321.172 285.22 321.918 285.564C323.193 286.153 324.137 287.168 324.656 288.361Z" fill="#8CAACE"/>
<path d="M291.731 364.126C288.742 362.008 285.326 360.486 281.663 359.692L314.62 288.255C315.527 286.289 317.448 285.112 319.476 285.06H319.614C321.49 285.06 323.236 286.015 324.247 287.596C324.405 287.842 324.541 288.098 324.656 288.361C324.656 288.362 324.657 288.363 324.657 288.364C324.658 288.367 324.659 288.369 324.66 288.371C324.757 288.594 324.839 288.825 324.906 289.06C324.907 289.062 324.908 289.066 324.909 289.069C324.909 289.071 324.91 289.072 324.91 289.073C325.046 289.561 325.115 290.064 325.114 290.568C325.113 291.35 324.945 292.134 324.606 292.866L291.731 364.126Z" fill="url(#paint1_linear)"/>
<path d="M291.731 364.126C288.742 362.008 285.326 360.486 281.663 359.692L314.62 288.255C315.527 286.289 317.448 285.112 319.476 285.06H319.614C321.49 285.06 323.236 286.015 324.247 287.596C324.405 287.842 324.541 288.098 324.656 288.361C324.656 288.362 324.657 288.363 324.657 288.364C324.658 288.367 324.659 288.369 324.66 288.371C324.757 288.594 324.839 288.825 324.906 289.06C324.907 289.062 324.908 289.066 324.909 289.069C324.909 289.071 324.91 289.072 324.91 289.073C325.046 289.561 325.115 290.064 325.114 290.568C325.113 291.35 324.945 292.134 324.606 292.866L291.731 364.126Z" fill="#A1A7C4"/>
<path fill-rule="evenodd" clip-rule="evenodd" d="M245.009 300.171L243.945 300.549C243.238 300.797 242.531 301.006 241.824 301.229C240.406 301.654 238.978 302.032 237.525 302.362C234.62 303.015 231.638 303.523 228.503 303.702C225.371 303.883 222.077 303.815 218.532 302.943L217.869 302.776L217.539 302.691L217.374 302.649C217.324 302.636 217.276 302.625 217.129 302.576C216.164 302.282 215.23 301.809 214.398 301.208C212.732 299.993 211.527 298.251 210.984 296.342C210.417 294.441 210.512 292.335 211.205 290.514C211.309 290.224 211.328 290.212 211.372 290.11L211.495 289.849L211.742 289.325L212.236 288.281C213.583 285.546 215.102 283.018 216.732 280.646C218.336 278.247 220.083 276 221.864 273.817C223.662 271.64 225.524 269.546 227.464 267.533C229.419 265.514 231.371 263.585 233.551 261.708L238.388 266.044C235.522 270.473 232.577 274.989 229.938 279.505C229.259 280.629 228.624 281.764 227.978 282.893C227.378 284.036 226.729 285.161 226.161 286.295C225.407 287.719 224.727 289.153 224.11 290.572C223.746 291.407 223.236 290.94 224.358 290.933C225.355 290.927 226.406 290.864 227.472 290.752C229.747 290.496 232.126 290.066 234.504 289.485C235.698 289.215 236.885 288.867 238.075 288.543L239.84 288.011L240.705 287.743L241.475 287.489L246.155 299.74L245.009 300.171Z" fill="#FFAF81"/>
<path fill-rule="evenodd" clip-rule="evenodd" d="M224.471 291.462C224.039 294.133 224.039 298.926 224.471 305.842C224.471 305.842 265.755 305.804 258.216 291.462C256.316 284.681 225.118 287.456 224.471 291.462Z" fill="#C5001A"/>
<path fill-rule="evenodd" clip-rule="evenodd" d="M230.226 307.042C230.227 307.04 230.228 307.04 230.228 307.038C230.683 307.013 231.302 306.974 232.053 306.917V306.917C231.301 306.975 230.68 307.015 230.226 307.042Z" fill="#C9C8C3"/>
<path fill-rule="evenodd" clip-rule="evenodd" d="M232.053 306.917V306.917C232.15 306.909 232.248 306.901 232.349 306.893C232.248 306.902 232.15 306.909 232.053 306.917Z" fill="#718FBC"/>
<path fill-rule="evenodd" clip-rule="evenodd" d="M143.829 430.489L134.774 426.968L139.83 404.43L148.885 407.953L143.829 430.489Z" fill="url(#paint2_linear)"/>
<path fill-rule="evenodd" clip-rule="evenodd" d="M136.309 422.918L145.161 423.082C145.54 423.087 145.854 423.385 145.919 423.798L147.333 432.996C147.48 433.95 146.766 434.84 145.891 434.81C142.254 434.688 140.584 434.413 135.998 434.347C133.178 434.306 124.657 434.508 120.761 434.452C116.95 434.397 116.552 430.106 118.165 429.741C125.395 428.106 132.38 425.785 134.774 423.53C135.206 423.124 135.754 422.91 136.309 422.918Z" fill="#2D2D2F"/>
<path fill-rule="evenodd" clip-rule="evenodd" d="M214.966 351.937C214.966 351.937 194.908 351.833 165.49 357.782C145.11 361.903 135.198 409.742 135.198 409.742L149.758 414.936C149.758 414.936 159.539 382.43 168.93 375.343C180.691 375.286 191.034 376.084 200.045 376.883C228.468 379.402 243.639 381.921 248.236 357.576C240.154 354.318 214.966 351.937 214.966 351.937Z" fill="#2D2D2F"/>
<path fill-rule="evenodd" clip-rule="evenodd" d="M132.19 412.476L151.785 416.571L153.348 410.102L132.91 405.416L132.19 412.476Z" fill="#A1A7C4"/>
<path fill-rule="evenodd" clip-rule="evenodd" d="M237.01 257.619L240.899 255.824C244.298 255.195 249.054 253.363 250.152 254.441C250.543 254.825 249.965 256.331 248.418 258.959L245.049 262.932C245.049 262.932 240.099 269.193 234.405 267.236L232.429 262.663L237.01 257.619Z" fill="#FFAF81"/>
<path fill-rule="evenodd" clip-rule="evenodd" d="M246.187 271.936L238.08 265.402C237.723 265.114 237.691 264.611 238.008 264.278L252.019 249.58C252.336 249.246 252.882 249.21 253.239 249.498L261.345 256.031C261.703 256.319 261.734 256.822 261.418 257.156L247.407 271.854C247.089 272.187 246.544 272.224 246.187 271.936Z" fill="#2D2D2F"/>
<path fill-rule="evenodd" clip-rule="evenodd" d="M261.889 359.89C261.889 359.89 276.688 338.095 283.887 302.976C285.583 294.704 279.435 286.908 271.002 286.465C263.895 286.091 256.336 285.997 250.223 286.021C244.086 286.046 238.699 290.117 237.015 296.018C233.295 309.057 226.894 328.354 214.965 351.938L261.889 359.89Z" fill="#C5001A"/>
<path fill-rule="evenodd" clip-rule="evenodd" d="M276.174 330.186C276.173 330.185 276.172 330.184 276.172 330.183C277.076 327.713 277.971 325.106 278.839 322.369C277.972 325.107 277.078 327.715 276.174 330.186Z" fill="#718FBC"/>
<path fill-rule="evenodd" clip-rule="evenodd" d="M244.584 287.027C244.179 285.136 250.91 279.031 258.751 280.406C259.648 280.563 260.248 281.419 260.09 282.316C259.934 283.213 259.09 283.814 258.181 283.657C252.512 282.664 248.31 288.926 248.268 288.99C247.832 289.643 244.989 288.919 244.584 287.027Z" fill="url(#paint3_linear)"/>
<path fill-rule="evenodd" clip-rule="evenodd" d="M271.134 264.105C268.812 270.411 265.844 281.823 269.439 286.387C265.474 289.606 260.788 292.096 253.387 291.853C245.986 291.608 247.494 288.647 249.913 286.027C257.115 284.804 257.856 278.744 257.513 273.695L271.134 264.105Z" fill="#FFAF81"/>
<path fill-rule="evenodd" clip-rule="evenodd" d="M244.584 296.386C241.911 296.386 239.745 293.904 239.745 290.841C239.745 287.778 241.911 285.295 244.584 285.295C247.257 285.295 249.423 287.778 249.423 290.841C249.423 291.519 249.317 292.169 249.122 292.77C248.438 294.882 246.665 296.386 244.584 296.386Z" fill="#A1A7C4"/>
<path fill-rule="evenodd" clip-rule="evenodd" d="M240.814 290.286C240.814 293.487 243.409 296.083 246.61 296.083C249.811 296.083 252.407 293.487 252.407 290.286C252.407 287.085 249.811 284.491 246.61 284.491C243.409 284.491 240.814 287.085 240.814 290.286Z" fill="#CFD7E5"/>
<path fill-rule="evenodd" clip-rule="evenodd" d="M257.502 277.257C257.527 277.019 257.546 276.779 257.56 276.538C257.549 276.778 257.534 277.017 257.513 277.256C257.51 277.256 257.506 277.256 257.502 277.257Z" fill="#C9C8C3"/>
<path fill-rule="evenodd" clip-rule="evenodd" d="M258.051 273.316L259.497 272.298L258.051 273.316Z" fill="#C4C3BF"/>
<path fill-rule="evenodd" clip-rule="evenodd" d="M257.577 273.65V273.649L258.052 273.316L257.577 273.65Z" fill="#BCBBB7"/>
<path fill-rule="evenodd" clip-rule="evenodd" d="M273.71 255.336C271.64 263.698 270.856 268.676 265.766 272.437C258.111 278.093 248.322 272.847 247.837 264.162C247.401 256.345 250.859 243.982 259.799 241.726C268.608 239.503 275.78 246.972 273.71 255.336Z" fill="#FFAF81"/>
<path fill-rule="evenodd" clip-rule="evenodd" d="M269.878 248.951C266.781 245.56 252.071 251.035 250.375 243.518C248.679 236.002 257.113 234.259 260.412 237.789C262.287 239.794 266.985 235.836 269.075 238.889C272.558 243.976 277.637 241.226 279.097 246.008C280.312 249.989 273.967 253.431 269.878 248.951Z" fill="#2D2D2F"/>
<path fill-rule="evenodd" clip-rule="evenodd" d="M276.209 249.859C276.209 249.859 279.204 247.842 281.908 252.303C279.632 250.622 276.209 249.859 276.209 249.859Z" fill="#1A282B"/>
<path fill-rule="evenodd" clip-rule="evenodd" d="M276.546 248.697L272.879 247.185C267.746 249.063 267.883 252.73 267.883 256.169C267.883 260.461 265.133 262.932 265.133 262.932L269.9 264.464C269.9 264.464 286.812 257.314 276.546 248.697Z" fill="#2D2D2F"/>
<path fill-rule="evenodd" clip-rule="evenodd" d="M273.404 265.65C271.711 266.919 269.597 267.337 267.89 267.123C265.323 266.802 265.138 264.333 266.771 262.49C268.242 260.831 271.349 258.998 273.484 260.25C275.587 261.484 275.341 264.199 273.404 265.65Z" fill="#FFAF81"/>
<path fill-rule="evenodd" clip-rule="evenodd" d="M107.469 432.355L102.362 424.088L119.974 409.145L125.081 417.41L107.469 432.355Z" fill="url(#paint4_linear)"/>
<path fill-rule="evenodd" clip-rule="evenodd" d="M105.356 421.225L113.541 427.498C113.816 427.709 113.865 428.116 113.661 428.478L109.104 436.541C108.63 437.377 107.567 437.696 106.943 437.197C104.355 435.125 102.585 433.47 99.2674 430.928C97.2271 429.363 90.8638 424.896 88.0451 422.737C85.2897 420.624 87.6064 417.005 89.009 417.591C95.2983 420.22 100.735 421.365 103.859 420.877C104.422 420.789 104.954 420.917 105.356 421.225Z" fill="#2D2D2F"/>
<path fill-rule="evenodd" clip-rule="evenodd" d="M116.956 424.312L116.953 424.308L120.69 421.136L120.693 421.14L116.956 424.312Z" fill="#263664"/>
<path fill-rule="evenodd" clip-rule="evenodd" d="M227.545 354.07C227.545 354.07 197.223 359.406 168.666 368.64C148.883 375.038 114.429 411.615 114.429 411.615L122.923 424.532C122.923 424.532 165.538 393.803 174.068 385.7C222.584 379.942 259.499 392.432 261.889 359.89C253.492 357.566 227.545 354.07 227.545 354.07Z" fill="#444444"/>
<path fill-rule="evenodd" clip-rule="evenodd" d="M146.336 356.968H240.999C242.193 356.968 243.17 357.945 243.17 359.139H144.165C144.165 357.945 145.142 356.968 146.336 356.968Z" fill="#426AA5"/>
<path fill-rule="evenodd" clip-rule="evenodd" d="M243.17 359.139C243.17 357.945 242.193 356.968 240.999 356.968H213.377C212.182 356.968 211.205 357.945 211.205 359.139H144.165C144.165 357.945 145.142 356.968 146.336 356.968H240.999C242.193 356.968 243.17 357.945 243.17 359.139Z" fill="url(#paint5_linear)"/>
<path fill-rule="evenodd" clip-rule="evenodd" d="M243.17 359.139H211.204C211.204 357.945 212.181 356.968 213.376 356.968H240.998C242.192 356.968 243.17 357.945 243.17 359.139Z" fill="#A1A7C4"/>
<path fill-rule="evenodd" clip-rule="evenodd" d="M134.923 308.567H201.186C203.303 308.567 205.428 310.3 205.907 312.417L215.122 353.117C215.602 355.235 214.262 356.968 212.144 356.968H145.881C143.764 356.968 141.639 355.235 141.16 353.117L131.945 312.417C131.465 310.3 132.805 308.567 134.923 308.567Z" fill="#A1A7C4"/>
<path fill-rule="evenodd" clip-rule="evenodd" d="M212.144 356.968H145.882C143.765 356.968 141.64 355.235 141.16 353.117L131.945 312.417C131.879 312.128 131.848 311.846 131.848 311.574C131.846 309.858 133.095 308.567 134.923 308.567H201.186C202.893 308.567 204.604 309.693 205.455 311.239C205.279 310.92 205.067 310.621 204.825 310.344C204.642 310.136 204.411 310.045 204.183 310.045C203.665 310.045 203.165 310.515 203.305 311.132L213.262 355.139C213.363 355.586 213.753 355.832 214.141 355.832C214.444 355.832 214.746 355.681 214.905 355.36C214.926 355.318 214.945 355.276 214.964 355.233C214.51 356.277 213.482 356.968 212.144 356.968ZM215.219 353.896C215.214 353.645 215.182 353.387 215.12 353.122L210.656 333.39L215.123 353.117C215.183 353.384 215.215 353.644 215.219 353.896Z" fill="#E1E7F1"/>
<path d="M170.64 339.445C172.118 338.557 172.185 335.955 170.79 333.633C169.394 331.311 167.066 330.149 165.588 331.037C164.111 331.924 164.044 334.526 165.439 336.848C166.834 339.17 169.163 340.332 170.64 339.445Z" fill="#A1A7C4"/>
<path fill-rule="evenodd" clip-rule="evenodd" d="M110.383 411.985L123.557 427.058L128.701 422.837L115.211 406.784L110.383 411.985Z" fill="#A1A7C4"/>
<path fill-rule="evenodd" clip-rule="evenodd" d="M284.642 298.788C286.156 305.368 287.32 311.828 288.158 318.528C288.564 321.873 288.898 325.248 289.015 328.754C289.077 330.509 289.096 332.296 288.998 334.189C288.941 335.138 288.858 336.114 288.704 337.164C288.544 338.219 288.338 339.337 287.878 340.695C287.629 341.387 287.301 342.18 286.765 343.04C286.376 343.633 285.963 344.189 285.536 344.675C284.683 345.66 283.792 346.451 282.907 347.13C281.123 348.47 279.362 349.397 277.629 350.192C274.172 351.757 270.767 352.681 267.4 353.472C264.022 354.212 260.672 354.744 257.32 355.107C253.953 355.464 250.662 355.694 247.217 355.694L246.521 349.236C252.628 347.706 258.873 346.038 264.623 343.915C267.5 342.879 270.272 341.656 272.643 340.307C273.81 339.627 274.866 338.886 275.612 338.173C275.989 337.826 276.283 337.49 276.464 337.218C276.562 337.082 276.613 336.967 276.66 336.873C276.544 337.033 276.525 337.07 276.538 336.992C276.57 336.797 276.647 336.305 276.68 335.746C276.718 335.179 276.728 334.528 276.716 333.85C276.703 332.488 276.615 331.019 276.476 329.525C276.187 326.532 275.764 323.436 275.271 320.333C274.279 314.141 273.076 307.789 271.842 301.642L284.642 298.788Z" fill="#FFAF81"/>
<path fill-rule="evenodd" clip-rule="evenodd" d="M269.439 286.387C275.028 284.42 287.438 288.361 288.252 319.173L274.069 323.509C272.249 326.939 263.849 288.354 269.439 286.387Z" fill="#C5001A"/>
<path fill-rule="evenodd" clip-rule="evenodd" d="M267.591 291.194C267.591 294.686 264.76 297.518 261.267 297.518C257.774 297.518 254.942 294.686 254.942 291.194C254.942 287.701 257.774 284.869 261.267 284.869C264.76 284.869 267.591 287.701 267.591 291.194Z" fill="#A1A7C4"/>
<path fill-rule="evenodd" clip-rule="evenodd" d="M259.373 293.502C259.081 292.641 259.541 291.705 260.402 291.411C260.502 291.376 267.439 288.896 267.882 283.161C267.918 282.685 267.868 281.733 267.802 280.637C270.132 280.781 272.493 284.119 270.339 287.63C268.186 291.141 261.841 294.407 261.464 294.536C261.289 294.595 261.111 294.623 260.935 294.623C260.247 294.623 259.605 294.19 259.373 293.502Z" fill="url(#paint6_linear)"/>
<path fill-rule="evenodd" clip-rule="evenodd" d="M268.172 291.194C268.172 294.257 266.006 296.739 263.333 296.739C260.661 296.739 258.494 294.257 258.494 291.194C258.494 288.131 260.661 285.648 263.333 285.648C266.006 285.648 268.172 288.131 268.172 291.194Z" fill="#1A282B"/>
<path fill-rule="evenodd" clip-rule="evenodd" d="M263.333 296.739C260.661 296.739 258.494 294.257 258.494 291.194C258.494 288.131 260.661 285.648 263.333 285.648C266.006 285.648 268.172 288.131 268.172 291.194C268.172 293.367 267.081 295.248 265.493 296.157C264.843 296.53 264.109 296.739 263.333 296.739Z" fill="#CFD7E5"/>
<path fill-rule="evenodd" clip-rule="evenodd" d="M243.815 359.149L236.939 362.022L232.223 354.599C235.903 352.267 238.571 350.741 240.229 350.022C241.886 349.303 244.401 348.944 247.775 348.944C248.752 348.805 249.718 349.256 250.239 350.094L252.014 352.951C252.055 357.053 243.815 359.149 243.815 359.149Z" fill="#FFAF81"/>
<path fill-rule="evenodd" clip-rule="evenodd" d="M228.642 354.219H228.642C228.652 354.11 228.658 353.997 228.658 353.883C228.658 353.862 228.658 353.841 228.657 353.818C228.66 353.955 228.655 354.088 228.642 354.219Z" fill="#1D4282"/>
<path fill-rule="evenodd" clip-rule="evenodd" d="M228.402 355.156C228.528 354.868 228.609 354.553 228.642 354.219H228.643C228.611 354.553 228.528 354.868 228.402 355.156Z" fill="#0F1516"/>
<path fill-rule="evenodd" clip-rule="evenodd" d="M222.705 327.181L219.345 312.34C219.253 311.931 219.098 311.536 218.894 311.165C219.099 311.537 219.255 311.932 219.35 312.344L222.706 327.179L222.705 327.181Z" fill="#92938F"/>
<path fill-rule="evenodd" clip-rule="evenodd" d="M223.955 332.698L222.706 327.181L222.706 327.179L223.955 332.697V332.698Z" fill="#556A8B"/>
<path fill-rule="evenodd" clip-rule="evenodd" d="M224.094 333.312L223.955 332.698V332.697L224.094 333.312Z" fill="#1D4282"/>
<path fill-rule="evenodd" clip-rule="evenodd" d="M218.895 311.164C218.894 311.163 218.894 311.162 218.893 311.161C218.894 311.162 218.894 311.163 218.895 311.164Z" fill="#92938F"/>
<path fill-rule="evenodd" clip-rule="evenodd" d="M319.041 431.729H300.711L284.057 379.312C280.834 369.171 271.528 362.362 260.891 362.362H248.012C237.387 362.362 228.07 369.171 224.858 379.312L208.193 431.729H189.874L206.847 378.312C210.5 366.795 221.07 359.062 233.148 359.062H275.756C287.834 359.062 298.404 366.795 302.068 378.312L319.041 431.729Z" fill="#426AA5"/>
<path d="M319.041 431.729H300.711L284.057 379.312C282.748 375.195 280.437 371.628 277.442 368.841C273.229 364.924 267.664 362.552 261.629 362.372C261.384 362.365 261.138 362.362 260.891 362.362H248.012C237.387 362.362 228.07 369.171 224.858 379.312L208.193 431.729H189.874L206.847 378.312C210.5 366.795 221.07 359.062 233.148 359.062H275.756C287.834 359.062 298.404 366.795 302.068 378.312L319.041 431.729Z" fill="url(#paint7_linear)"/>
<path d="M319.041 431.729H300.711L284.057 379.312C282.748 375.195 280.437 371.628 277.442 368.841C273.229 364.924 267.664 362.552 261.629 362.372C261.384 362.365 261.138 362.362 260.891 362.362H248.012C237.387 362.362 228.07 369.171 224.858 379.312L208.193 431.729H189.874L206.847 378.312C210.5 366.795 221.07 359.062 233.148 359.062H275.756C287.834 359.062 298.404 366.795 302.068 378.312L319.041 431.729Z" fill="#A1A7C4"/>
<path fill-rule="evenodd" clip-rule="evenodd" d="M319.041 431.729H315.576L298.922 379.312C295.699 369.171 286.393 362.362 275.756 362.362H248.013C237.387 362.362 228.07 369.171 224.858 379.312L208.193 431.729H204.738L221.711 378.312C225.364 366.795 235.935 359.062 248.013 359.062H275.756C287.834 359.062 298.405 366.795 302.068 378.312L319.041 431.729Z" fill="url(#paint8_linear)"/>
<path fill-rule="evenodd" clip-rule="evenodd" d="M133.906 193.956C133.141 197.619 131.656 201.116 134.781 204.117C137.906 207.119 142.201 202.042 144.286 203.928C146.371 205.815 142.503 210.665 145.589 213.899C148.675 217.134 152.906 213.533 154.694 214.837C156.482 216.141 155.398 220.573 156.892 222.143C158.385 223.712 160.374 224.108 160.589 221.032C160.804 217.955 161.15 214.488 157.651 211.263C154.152 208.039 151.168 212.793 149.022 210.373C146.877 207.952 150.881 203.059 147.666 199.999C144.45 196.939 140.236 201.892 138.317 200.185C136.398 198.478 138.555 192.433 137.525 190.978C136.495 189.524 134.671 190.294 133.906 193.956Z" fill="#E1E7F1"/>
<path d="M76.1786 177.132C76.4297 176.011 76.2016 174.841 75.5491 173.905C72.6314 170.029 63.2802 173.889 55.552 179.707C47.8239 185.524 41.5273 193.442 44.445 197.318C45.1639 198.204 46.2244 198.747 47.3716 198.816C47.0786 199.934 47.3084 201.119 47.9965 202.036C48.6849 202.954 49.7574 203.506 50.9131 203.538C50.6265 204.659 50.8608 205.842 51.5509 206.758C52.241 207.675 53.3132 208.228 54.4691 208.262C54.1825 209.383 54.4168 210.566 55.1069 211.483C55.797 212.399 56.8692 212.952 58.0251 212.987C57.7385 214.107 57.9729 215.29 58.663 216.207C59.3531 217.124 60.4252 217.676 61.5812 217.711C61.2946 218.831 61.5289 220.014 62.219 220.931C62.9091 221.848 63.9813 222.4 65.1372 222.435C64.8926 223.559 65.1259 224.728 65.7813 225.664C68.699 229.54 78.0502 225.68 85.7783 219.862C90.4439 216.35 94.5737 212.074 96.4819 208.383C97.3706 208.363 97.8789 208.55 98.0487 208.776C98.9546 209.979 96.0705 215.816 87.5564 222.224C86.8957 222.722 86.7581 223.654 87.2491 224.306C87.7401 224.958 88.6737 225.084 89.3344 224.587C97.0625 218.769 103.359 210.851 100.441 206.975C99.7239 206.086 98.6649 205.539 97.517 205.463C97.8035 204.342 97.5692 203.159 96.8791 202.242C96.189 201.326 95.1168 200.773 93.9609 200.739C94.2475 199.618 94.0132 198.435 93.3231 197.518C92.633 196.601 91.5608 196.049 90.4049 196.014C90.6915 194.894 90.4571 193.711 89.767 192.794C89.077 191.877 88.0048 191.325 86.8488 191.29C87.1354 190.17 86.9011 188.987 86.211 188.07C85.5209 187.153 84.4487 186.601 83.2928 186.566C83.5794 185.446 83.3451 184.262 82.655 183.346C81.9649 182.429 80.8927 181.876 79.7368 181.842C80.0259 180.722 79.7919 179.539 79.1005 178.624C78.4089 177.708 77.3344 177.16 76.1786 177.132ZM80.2685 185.155C81.1744 186.358 78.2903 192.195 69.7762 198.603C61.2621 205.012 54.8557 206.169 53.9498 204.966C53.78 204.74 53.7446 204.195 54.0053 203.351C58.0809 202.539 63.3326 199.753 67.9982 196.241C72.6637 192.729 76.7935 188.453 78.7017 184.762C79.5847 184.745 80.0987 184.929 80.2685 185.155ZM83.8245 189.879C84.7304 191.083 81.8463 196.919 73.3322 203.328C64.8181 209.736 58.4118 210.893 57.5059 209.69C57.3361 209.464 57.3006 208.919 57.5613 208.075C61.637 207.263 66.8886 204.477 71.5542 200.966C76.2198 197.454 80.3495 193.178 82.2578 189.486C83.1408 189.469 83.6547 189.654 83.8245 189.879ZM87.3806 194.603C88.2865 195.807 85.4023 201.643 76.8883 208.052C68.3742 214.461 61.9678 215.618 61.0619 214.414C60.8921 214.189 60.8567 213.643 61.1173 212.8C65.193 211.987 70.4447 209.202 75.1102 205.69C79.7758 202.178 83.9056 197.902 85.8138 194.21C86.6968 194.193 87.2108 194.378 87.3806 194.603ZM90.9366 199.328C91.8425 200.531 88.9584 206.367 80.4443 212.776C71.9302 219.185 65.5238 220.342 64.6179 219.138C64.4481 218.913 64.4127 218.368 64.6734 217.524C68.749 216.711 74.0007 213.926 78.6663 210.414C83.3319 206.902 87.4616 202.626 89.3698 198.934C90.2528 198.917 90.7668 199.102 90.9366 199.328ZM50.4271 198.633C54.5064 197.825 59.767 195.036 64.4421 191.517C69.1173 187.998 73.2524 183.714 75.1571 180.018C75.957 179.995 76.4955 180.143 76.7124 180.431C77.6183 181.634 74.7342 187.47 66.2201 193.879C57.7061 200.288 51.2997 201.445 50.3938 200.241C50.1769 199.953 50.1838 199.395 50.4271 198.633ZM52.4631 194.983C54.8616 191.865 57.6991 189.106 60.8861 186.793C63.9903 184.37 67.4268 182.407 71.0871 180.965C68.6886 184.083 65.8511 186.842 62.6641 189.155C59.5599 191.578 56.1234 193.541 52.4631 194.983ZM57.3301 182.069C65.8441 175.66 72.2505 174.503 73.1564 175.707C73.3733 175.995 73.3664 176.553 73.1231 177.315C69.0438 178.123 63.7832 180.912 59.1081 184.431C54.4329 187.95 50.2978 192.234 48.3931 195.93C47.5932 195.953 47.0547 195.805 46.8378 195.517C45.9319 194.314 48.816 188.478 57.3301 182.069ZM68.174 223.863C68.0042 223.637 67.9687 223.092 68.2294 222.248C72.3051 221.436 77.5567 218.65 82.2223 215.138C86.8879 211.626 91.0176 207.35 92.9259 203.658C93.8145 203.639 94.3228 203.826 94.4926 204.052C95.3985 205.255 92.5144 211.092 84.0003 217.5C75.4862 223.909 69.0799 225.066 68.174 223.863Z" fill="#CFD7E5"/>
<path d="M417.205 210.401C418.636 210.366 419.98 209.737 420.913 208.666C424.716 203.971 417.228 193.838 407.866 186.256C398.504 178.675 387.036 173.458 383.233 178.154C382.38 179.29 382.044 180.735 382.308 182.142C380.868 182.126 379.506 182.761 378.605 183.869C377.704 184.978 377.361 186.441 377.671 187.847C376.231 187.839 374.872 188.479 373.973 189.59C373.073 190.7 372.729 192.163 373.037 193.57C371.597 193.562 370.238 194.202 369.338 195.313C368.439 196.423 368.095 197.886 368.402 199.293C366.962 199.285 365.603 199.925 364.704 201.036C363.805 202.146 363.461 203.609 363.768 205.016C362.328 205.008 360.969 205.648 360.07 206.759C359.17 207.869 358.826 209.332 359.134 210.739C357.701 210.783 356.359 211.417 355.427 212.492C351.625 217.187 359.112 227.321 368.474 234.902C374.126 239.479 380.54 243.177 385.576 244.368C385.868 245.436 385.795 246.107 385.574 246.38C384.394 247.838 376.471 246.116 366.157 237.763C365.357 237.115 364.189 237.23 363.549 238.02C362.909 238.811 363.039 239.977 363.84 240.625C373.202 248.206 384.67 253.423 388.473 248.727C389.33 247.592 389.672 246.147 389.417 244.737C390.857 244.745 392.216 244.105 393.115 242.994C394.015 241.884 394.358 240.421 394.051 239.014C395.491 239.022 396.85 238.382 397.75 237.271C398.649 236.161 398.993 234.699 398.686 233.291C400.126 233.299 401.485 232.659 402.384 231.548C403.283 230.438 403.627 228.976 403.32 227.568C404.76 227.576 406.119 226.936 407.018 225.825C407.918 224.715 408.262 223.253 407.954 221.845C409.395 221.853 410.753 221.213 411.653 220.102C412.552 218.992 412.896 217.53 412.589 216.122C414.029 216.134 415.388 215.494 416.285 214.382C417.182 213.27 417.52 211.806 417.205 210.401ZM408.746 217.765C407.566 219.223 399.643 217.501 389.329 209.148C379.015 200.796 375.683 193.405 376.863 191.947C377.084 191.674 377.732 191.466 378.831 191.526C381.043 196.206 385.994 201.71 391.646 206.287C397.298 210.864 403.712 214.562 408.748 215.753C409.036 216.815 408.967 217.492 408.746 217.765ZM404.112 223.488C402.931 224.946 395.009 223.224 384.694 214.871C374.38 206.519 371.048 199.128 372.229 197.67C372.45 197.397 373.098 197.189 374.196 197.249C376.408 201.929 381.36 207.433 387.012 212.01C392.664 216.587 399.077 220.285 404.114 221.476C404.401 222.538 404.333 223.215 404.112 223.488ZM399.477 229.211C398.297 230.669 390.374 228.947 380.06 220.594C369.746 212.242 366.414 204.851 367.594 203.393C367.816 203.12 368.464 202.912 369.562 202.972C371.774 207.652 376.725 213.156 382.377 217.733C388.029 222.31 394.443 226.008 399.48 227.199C399.767 228.261 399.699 228.938 399.477 229.211ZM394.843 234.934C393.662 236.392 385.74 234.67 375.426 226.317C365.112 217.965 361.779 210.574 362.96 209.116C363.181 208.843 363.829 208.635 364.927 208.695C367.14 213.375 372.091 218.879 377.743 223.456C383.395 228.033 389.808 231.731 394.845 232.922C395.132 233.984 395.064 234.661 394.843 234.934ZM383.452 185.778C385.659 190.463 390.617 195.978 396.28 200.564C401.944 205.15 408.369 208.853 413.41 210.038C413.679 210.998 413.663 211.693 413.381 212.042C412.2 213.5 404.277 211.778 393.963 203.425C383.649 195.073 380.317 187.682 381.498 186.224C381.78 185.875 382.457 185.715 383.452 185.778ZM388.475 187.137C392.968 189.093 397.158 191.688 400.915 194.841C404.779 197.86 408.189 201.419 411.037 205.407C406.545 203.45 402.354 200.855 398.598 197.702C394.733 194.683 391.323 191.124 388.475 187.137ZM405.549 189.118C415.863 197.47 419.196 204.861 418.015 206.319C417.732 206.668 417.055 206.829 416.061 206.765C413.853 202.08 408.896 196.566 403.232 191.979C397.568 187.393 391.144 183.69 386.102 182.505C385.833 181.545 385.849 180.85 386.132 180.501C387.313 179.043 395.235 180.766 405.549 189.118ZM358.326 214.839C358.547 214.566 359.195 214.358 360.293 214.418C362.505 219.098 367.457 224.602 373.109 229.179C378.76 233.756 385.174 237.454 390.211 238.645C390.503 239.713 390.43 240.384 390.209 240.657C389.028 242.115 381.105 240.393 370.791 232.04C360.477 223.688 357.145 216.297 358.326 214.839Z" fill="#CFD7E5"/>
<path fill-rule="evenodd" clip-rule="evenodd" d="M263.483 171.578L327.878 184.413C333.115 185.457 338.313 181.524 339.488 175.63L348.525 130.287C349.7 124.393 346.407 118.768 341.17 117.724L276.775 104.89C271.538 103.846 266.34 107.778 265.165 113.673L256.128 159.016C254.953 164.91 258.246 170.535 263.483 171.578Z" fill="#CFD7E5"/>
<path fill-rule="evenodd" clip-rule="evenodd" d="M355.613 80.2714L392.879 75.322C395.91 74.9195 398 71.8279 397.547 68.4168L394.062 42.1766C393.608 38.7655 390.784 36.3265 387.753 36.7291L350.488 41.6784C347.457 42.0809 345.367 45.1725 345.82 48.5836L349.305 74.8238C349.758 78.2349 352.583 80.6739 355.613 80.2714Z" fill="#CFD7E5"/>
<path fill-rule="evenodd" clip-rule="evenodd" d="M275.063 135.631L290.332 160.615L331.736 137.784L326.777 128.112L293.741 147.58L282.309 129.76L275.063 135.631Z" fill="#FFFFFE"/>
<path fill-rule="evenodd" clip-rule="evenodd" d="M355.242 58.6524L368.134 69.3679L386.348 49.343L381.873 45.0184L367.571 61.6746L358.083 54.1319L355.242 58.6524Z" fill="#FFFFFE"/>
<path fill-rule="evenodd" clip-rule="evenodd" d="M170.853 149H117.147C111.542 149 107 143.73 107 137.233V99.767C107 93.2699 111.542 88 117.147 88H170.853C176.458 88 181 93.2699 181 99.767V137.233C181 143.73 176.458 149 170.853 149Z" fill="#CFD7E5"/>
<path fill-rule="evenodd" clip-rule="evenodd" d="M79.1257 86.6015L40.0047 101.441C35.9216 102.989 31.1777 100.461 29.4082 95.7957L19.2047 68.8954C17.4352 64.2305 19.3087 59.1917 23.3918 57.643L62.5128 42.8039C66.5959 41.2552 71.3399 43.7839 73.1093 48.4488L83.3129 75.349C85.0824 80.0139 83.2088 85.0527 79.1257 86.6015Z" fill="#CFD7E5"/>
<path fill-rule="evenodd" clip-rule="evenodd" d="M144.659 110.678C144.659 110.678 133.06 99.4534 128.428 107.449C121.131 120.045 144.178 132 144.178 132C144.178 132 168.029 114.878 160.547 106.802C153.063 98.7256 144.659 110.678 144.659 110.678Z" fill="#FFFFFE"/>
<path fill-rule="evenodd" clip-rule="evenodd" d="M49.1547 66.2313C49.1547 66.2313 37.8929 61.2338 36.8125 68.246C35.1111 79.2937 54.6539 81.7534 54.6539 81.7534C54.6539 81.7534 66.8013 63.0059 59.3082 59.1789C51.8135 55.3525 49.1547 66.2313 49.1547 66.2313Z" fill="#FFFFFE"/>
<path d="M48.6014 285.282C48.0641 284.468 47.215 283.918 46.2584 283.765C42.1693 283.263 39.0154 291.253 38.0144 299.406C37.0134 307.558 38.1405 316.075 42.2296 316.577C43.1947 316.66 44.1517 316.332 44.8701 315.671C45.3809 316.51 46.2401 317.067 47.2067 317.188C48.1734 317.308 49.1432 316.978 49.844 316.291C50.3597 317.127 51.221 317.681 52.1881 317.8C53.1552 317.918 54.125 317.589 54.8276 316.903C55.3434 317.738 56.2046 318.293 57.1718 318.412C58.1389 318.53 59.1087 318.201 59.8113 317.515C60.327 318.35 61.1883 318.905 62.1554 319.023C63.1225 319.142 64.0923 318.813 64.7949 318.127C65.3107 318.962 66.1719 319.517 67.139 319.635C68.1062 319.754 69.076 319.425 69.7786 318.739C70.3214 319.551 71.1734 320.098 72.1314 320.248C76.2205 320.75 79.3744 312.76 80.3754 304.607C80.9797 299.685 80.8011 294.641 79.6699 291.298C80.1819 290.743 80.596 290.543 80.834 290.572C82.1036 290.728 83.97 295.931 82.8672 304.913C82.7816 305.61 83.2701 306.244 83.9582 306.328C84.6463 306.413 85.2734 305.916 85.359 305.219C86.36 297.067 85.233 288.55 81.1439 288.048C80.1778 287.963 79.2188 288.287 78.4957 288.944C77.9799 288.108 77.1187 287.554 76.1515 287.435C75.1844 287.316 74.2146 287.646 73.512 288.332C72.9963 287.496 72.135 286.942 71.1679 286.823C70.2007 286.704 69.231 287.034 68.5284 287.72C68.0126 286.884 67.1514 286.33 66.1842 286.211C65.2171 286.093 64.2473 286.422 63.5447 287.108C63.029 286.272 62.1677 285.718 61.2006 285.599C60.2335 285.481 59.2637 285.81 58.5611 286.496C58.0453 285.661 57.1841 285.106 56.217 284.987C55.2498 284.869 54.28 285.198 53.5774 285.884C53.0638 285.048 52.2026 284.493 51.2356 284.376C50.2685 284.259 49.2999 284.592 48.6014 285.282ZM55.9158 287.513C57.1853 287.669 59.0518 292.872 57.949 301.854C56.8462 310.835 53.7763 315.433 52.5068 315.277C52.2688 315.247 51.9148 314.948 51.5528 314.291C53.4591 311.321 54.8528 306.469 55.4572 301.548C56.0615 296.626 55.8829 291.581 54.7517 288.238C55.2618 287.689 55.6778 287.483 55.9158 287.513ZM60.8994 288.125C62.169 288.28 64.0354 293.484 62.9326 302.465C61.8298 311.447 58.76 316.044 57.4904 315.889C57.2524 315.859 56.8984 315.56 56.5364 314.903C58.4427 311.933 59.8365 307.081 60.4408 302.16C61.0451 297.238 60.8665 292.193 59.7353 288.85C60.2454 288.3 60.6614 288.095 60.8994 288.125ZM65.883 288.736C67.1526 288.892 69.0191 294.096 67.9163 303.077C66.8135 312.059 63.7436 316.656 62.474 316.5C62.2361 316.471 61.8821 316.172 61.5201 315.515C63.4264 312.545 64.8201 307.693 65.4245 302.771C66.0288 297.85 65.8502 292.805 64.719 289.462C65.2291 288.912 65.6451 288.707 65.883 288.736ZM70.8667 289.348C72.1363 289.504 74.0027 294.708 72.8999 303.689C71.7971 312.671 68.7273 317.268 67.4577 317.112C67.2197 317.083 66.8657 316.783 66.5037 316.127C68.41 313.157 69.8038 308.305 70.4081 303.383C71.0124 298.462 70.8338 293.417 69.7026 290.074C70.2127 289.524 70.6287 289.319 70.8667 289.348ZM46.5595 313.696C48.4708 310.727 49.868 305.868 50.4735 300.936C51.0791 296.004 50.8989 290.951 49.7627 287.608C50.2202 287.105 50.6281 286.863 50.9321 286.901C52.2017 287.057 54.0682 292.26 52.9653 301.242C51.8625 310.223 48.7927 314.821 47.5231 314.665C47.2191 314.627 46.8819 314.294 46.5595 313.696ZM45.5296 310.3C45.0378 306.996 45.0244 303.635 45.4899 300.324C45.8393 296.998 46.6654 293.741 47.942 290.653C48.4338 293.958 48.4472 297.318 47.9817 300.63C47.6323 303.955 46.8062 307.213 45.5296 310.3ZM40.5062 299.712C41.609 290.73 44.6789 286.133 45.9485 286.289C46.2525 286.326 46.5897 286.66 46.9121 287.258C45.0008 290.227 43.6036 295.086 42.9981 300.018C42.3925 304.95 42.5727 310.002 43.7089 313.346C43.2513 313.848 42.8435 314.09 42.5395 314.053C41.2699 313.897 39.4034 308.694 40.5062 299.712ZM72.4413 317.724C72.2034 317.695 71.8494 317.395 71.4874 316.739C73.3937 313.769 74.7874 308.917 75.3917 303.995C75.9961 299.073 75.8175 294.029 74.6862 290.686C75.1982 290.131 75.6124 289.931 75.8503 289.96C77.1199 290.116 78.9864 295.32 77.8836 304.301C76.7808 313.283 73.7109 317.88 72.4413 317.724Z" fill="#CFD7E5"/>
<path fill-rule="evenodd" clip-rule="evenodd" d="M215.86 52.6752C213.152 56.1027 209.789 58.9733 211.435 63.7809C213.081 68.5885 220.169 65.56 221.328 68.6462C222.487 71.7323 215.96 74.7497 217.444 79.7803C218.928 84.8108 225.176 83.2955 226.335 85.6129C227.493 87.9303 224.053 91.9942 224.77 94.4329C225.486 96.8716 227.328 98.3461 229.162 95.2391C230.996 92.132 233.171 88.6861 231.256 83.4458C229.34 78.2056 223.773 81.5937 222.831 77.9167C221.889 74.2397 228.58 71.2496 226.871 66.3321C225.162 61.4145 218.223 64.3572 217.141 61.5475C216.058 58.7377 221.45 53.5564 221.151 51.485C220.852 49.4136 218.568 49.2478 215.86 52.6752Z" fill="#E1E7F1"/>
</g>
<defs>
<filter id="filter0_d" x="0.903809" y="-1.31189" width="465.798" height="463.712" filterUnits="userSpaceOnUse" color-interpolation-filters="sRGB">
<feFlood flood-opacity="0" result="BackgroundImageFix"/>
<feColorMatrix in="SourceAlpha" type="matrix" values="0 0 0 0 0 0 0 0 0 0 0 0 0 0 0 0 0 0 127 0"/>
<feOffset dx="4" dy="4"/>
<feGaussianBlur stdDeviation="10"/>
<feColorMatrix type="matrix" values="0 0 0 0 0 0 0 0 0 0 0 0 0 0 0 0 0 0 0.08 0"/>
<feBlend mode="normal" in2="BackgroundImageFix" result="effect1_dropShadow"/>
<feBlend mode="normal" in="SourceGraphic" in2="effect1_dropShadow" result="shape"/>
</filter>
<linearGradient id="paint0_linear" x1="193.817" y1="390.663" x2="79.6858" y2="400.013" gradientUnits="userSpaceOnUse">
<stop stop-color="#075983"/>
<stop offset="1" stop-color="#1292B9"/>
</linearGradient>
<linearGradient id="paint1_linear" x1="305.043" y1="308.323" x2="291.628" y2="311.878" gradientUnits="userSpaceOnUse">
<stop stop-color="#075983"/>
<stop offset="1" stop-color="#1292B9"/>
</linearGradient>
<linearGradient id="paint2_linear" x1="142.061" y1="419.39" x2="146.063" y2="424.951" gradientUnits="userSpaceOnUse">
<stop stop-color="#FF9652"/>
<stop offset="1" stop-color="#FFBE9D"/>
</linearGradient>
<linearGradient id="paint3_linear" x1="252.341" y1="279.201" x2="252.341" y2="282.545" gradientUnits="userSpaceOnUse">
<stop stop-color="#E9EEF4"/>
<stop offset="1" stop-color="#CFD7E5"/>
</linearGradient>
<linearGradient id="paint4_linear" x1="114.94" y1="422.469" x2="123.208" y2="428.824" gradientUnits="userSpaceOnUse">
<stop stop-color="#FF9652"/>
<stop offset="1" stop-color="#FFBE9D"/>
</linearGradient>
<linearGradient id="paint5_linear" x1="193.668" y1="356.726" x2="193.668" y2="357.531" gradientUnits="userSpaceOnUse">
<stop stop-color="#E9EEF4"/>
<stop offset="1" stop-color="#CFD7E5"/>
</linearGradient>
<linearGradient id="paint6_linear" x1="265.236" y1="279.078" x2="265.236" y2="284.265" gradientUnits="userSpaceOnUse">
<stop stop-color="#E9EEF4"/>
<stop offset="1" stop-color="#CFD7E5"/>
</linearGradient>
<linearGradient id="paint7_linear" x1="270.739" y1="390.663" x2="156.608" y2="400.013" gradientUnits="userSpaceOnUse">
<stop stop-color="#075983"/>
<stop offset="1" stop-color="#1292B9"/>
</linearGradient>
<linearGradient id="paint8_linear" x1="261.89" y1="350.96" x2="261.89" y2="377.909" gradientUnits="userSpaceOnUse">
<stop stop-color="#E9EEF4"/>
<stop offset="1" stop-color="#CFD7E5"/>
</linearGradient>
<clipPath id="clip0">
<rect width="450" height="450" fill="white"/>
</clipPath>
</defs>
</svg>
